# Blender 3.6.1
# www.blender.org
mtllib ene.mtl
o ICO球
v -1.145078 -0.124728 -0.831938
v 0.437372 -0.124728 -1.346116
v 1.836461 -0.124722 -0.000000
v 0.437372 -0.124728 1.346116
v -1.145077 -0.124728 0.831938
v -0.437372 1.290684 -1.346116
v 1.145077 1.290684 -0.831938
v 1.145078 1.290684 0.831938
v -0.437372 1.290684 1.346116
v -2.547414 1.750983 0.231649
v 0.000000 3.294831 0.000000
v -0.415979 -0.096740 -1.280226
v -1.869034 -0.130646 0.000000
v 1.089030 -0.158652 -0.791224
v 1.089030 -0.142114 0.791224
v -0.415978 -0.146073 1.280226
v -1.505008 0.582978 -0.488999
v -1.505008 0.582978 0.488999
v -0.000000 0.582978 -0.869924
v -0.930146 0.582978 -1.280234
v 1.505008 0.582978 -0.488999
v 0.930145 0.582978 -1.280234
v 0.930146 0.582978 1.280234
v 1.505008 0.582978 0.488999
v -0.930145 0.582978 1.280234
v 0.000000 0.582978 0.765331
v -1.089030 1.414933 -0.791224
v 0.415978 1.414935 -1.280226
v 2.547235 1.719037 0.116564
v 0.415979 1.414935 1.280226
v -1.089030 1.414933 0.791224
v -0.257079 1.929102 -0.791221
v -0.831945 1.929098 0.000000
v 0.673055 1.929102 -0.488997
v 0.673055 1.929102 0.488997
v -0.257079 1.929102 0.791221
vn -0.7525 -0.0652 -0.6553
vn -0.0474 0.5373 -0.8421
vn 0.7236 -0.1296 -0.6780
vn 0.6014 -0.3520 0.7173
vn -0.4979 -0.3511 0.7930
vn -0.8026 -0.1256 -0.5831
vn -0.3790 0.3439 -0.8591
vn 0.9056 0.4241 -0.0000
vn -0.4467 0.3862 0.8070
vn -0.8026 -0.1256 0.5831
vn -0.4089 0.6617 -0.6284
vn 0.4713 0.6617 -0.5831
vn 0.2207 0.5832 0.7818
vn -0.0385 0.6617 0.7488
vn -0.0141 0.8405 0.5416
vn -0.7257 0.4421 0.5272
vn -0.4911 0.7947 0.3568
vn -0.4089 0.6617 0.6284
vn 0.2772 0.4421 0.8531
vn 0.1876 0.7947 0.5773
vn 0.4713 0.6617 0.5831
vn 0.8970 0.4421 -0.0000
vn 0.1114 0.9938 -0.0000
vn 0.3040 0.6154 -0.7273
vn 0.2772 0.4421 -0.8531
vn 0.1876 0.7947 -0.5773
vn -0.0385 0.6617 -0.7488
vn -0.7257 0.4421 -0.5272
vn -0.4911 0.7947 -0.3568
vn -0.1561 0.8506 -0.5020
vn -0.3827 -0.1404 0.9131
vn -0.7947 0.1876 0.5773
vn -0.5746 0.3304 0.7488
vn 0.1456 -0.5723 0.8070
vn -0.4640 -0.2867 0.8382
vn 0.5346 0.3304 0.7779
vn 0.4881 -0.1669 0.8567
vn 0.7369 -0.6760 -0.0000
vn 0.5781 -0.0985 -0.8100
vn 0.5346 0.3304 -0.7779
vn -0.3916 -0.2420 -0.8877
vn 0.1381 -0.4928 -0.8591
vn -0.5746 0.3304 -0.7488
vn -0.7947 0.1876 -0.5773
vn -0.5756 -0.0092 -0.8177
vn 0.4467 -0.3862 0.8070
vn 0.4583 0.3232 0.8279
vn -0.0764 0.6039 0.7934
vn 0.8026 0.1256 0.5831
vn 0.7903 -0.2141 0.5742
vn 0.7221 -0.1311 0.6792
vn 0.8026 0.1256 -0.5831
vn 0.7911 -0.2095 -0.5747
vn 0.5971 -0.3485 -0.7225
vn 0.3790 -0.3439 -0.8591
vn 0.3860 0.2920 -0.8751
vn -0.4782 -0.3617 -0.8003
vn -0.7461 -0.6659 -0.0000
vn -0.8908 0.4544 -0.0000
vn -0.7525 -0.0652 0.6553
vn -0.0000 -1.0000 -0.0000
vn -0.2201 -0.9483 -0.2287
vn 0.0326 -0.9944 -0.1004
vn 0.0082 -1.0000 -0.0000
vn -0.0426 -0.9904 -0.1311
vn -0.3791 -0.8373 0.3940
vt 0.272728 0.157461
vt 0.363637 0.157461
vt 0.318182 0.236191
vt 0.090910 0.157461
vt 0.181819 0.157461
vt 0.136365 0.236191
vt 0.818182 0.157461
vt 0.909091 0.157461
vt 0.863636 0.236191
vt 0.636364 0.157461
vt 0.727273 0.157461
vt 0.681818 0.236191
vt 0.454546 0.157461
vt 0.545455 0.157461
vt 0.500000 0.236191
vt 0.227273 0.236191
vt 0.045455 0.236191
vt 0.772727 0.236191
vt 0.590909 0.236191
vt 0.409092 0.236191
vt 0.181819 0.314921
vt 0.272728 0.314921
vt 0.227273 0.393651
vt 0.000000 0.314921
vt 0.090910 0.314921
vt 0.045455 0.393651
vt 0.727273 0.314921
vt 0.818182 0.314921
vt 0.772727 0.393651
vt 0.545455 0.314921
vt 0.636364 0.314921
vt 0.590909 0.393651
vt 0.363637 0.314921
vt 0.454546 0.314921
vt 0.409092 0.393651
vt 0.500000 0.393651
vt 0.454546 0.472382
vt 0.681818 0.393651
vt 0.636364 0.472382
vt 0.863636 0.393651
vt 0.818182 0.472382
vt 0.909091 0.314921
vt 0.136365 0.393651
vt 0.090910 0.472382
vt 0.318182 0.393651
vt 0.272728 0.472382
vt 0.954545 0.236191
vt 1.000000 0.157461
s 0
usemtl マテリアル
f 1/1/1 13/2/1 17/3/1
f 2/4/2 12/5/2 19/6/2
f 3/7/3 14/8/3 21/9/3
f 4/10/4 15/11/4 23/12/4
f 5/13/5 16/14/5 25/15/5
f 1/1/6 17/3/6 20/16/6
f 2/4/7 19/6/7 22/17/7
f 3/7/8 21/9/8 24/18/8
f 4/10/9 23/12/9 26/19/9
f 5/13/10 25/15/10 18/20/10
f 6/21/11 27/22/11 32/23/11
f 7/24/12 28/25/12 34/26/12
f 8/27/13 29/28/13 35/29/13
f 9/30/14 30/31/14 36/32/14
f 10/33/15 31/34/15 33/35/15
f 33/35/16 36/36/16 11/37/16
f 33/35/17 31/34/17 36/36/17
f 31/34/18 9/30/18 36/36/18
f 36/32/19 35/38/19 11/39/19
f 36/32/20 30/31/20 35/38/20
f 30/31/21 8/27/21 35/38/21
f 35/29/22 34/40/22 11/41/22
f 35/29/23 29/28/23 34/40/23
f 29/28/24 7/42/24 34/40/24
f 34/26/25 32/43/25 11/44/25
f 34/26/26 28/25/26 32/43/26
f 28/25/27 6/21/27 32/43/27
f 32/23/28 33/45/28 11/46/28
f 32/23/29 27/22/29 33/45/29
f 27/22/30 10/33/30 33/45/30
f 18/20/31 31/34/31 10/33/31
f 18/20/32 25/15/32 31/34/32
f 25/15/33 9/30/33 31/34/33
f 26/19/34 30/31/34 9/30/34
f 26/19/35 23/12/35 30/31/35
f 23/12/36 8/27/36 30/31/36
f 24/18/37 29/28/37 8/27/37
f 24/18/38 21/9/38 29/28/38
f 21/9/39 7/42/39 29/28/39
f 22/17/40 28/25/40 7/24/40
f 22/17/41 19/6/41 28/25/41
f 19/6/42 6/21/42 28/25/42
f 20/16/43 27/22/43 6/21/43
f 20/16/44 17/3/44 27/22/44
f 17/3/45 10/33/45 27/22/45
f 25/15/46 26/19/46 9/30/46
f 25/15/47 16/14/47 26/19/47
f 16/14/48 4/10/48 26/19/48
f 23/12/49 24/18/49 8/27/49
f 23/12/50 15/11/50 24/18/50
f 15/11/51 3/7/51 24/18/51
f 21/9/52 22/47/52 7/42/52
f 21/9/53 14/8/53 22/47/53
f 14/8/54 2/48/54 22/47/54
f 19/6/55 20/16/55 6/21/55
f 19/6/56 12/5/56 20/16/56
f 12/5/57 1/1/57 20/16/57
f 17/3/58 18/20/58 10/33/58
f 17/3/59 13/2/59 18/20/59
f 13/2/60 5/13/60 18/20/60
f 5/13/61 2/48/61 3/7/61
f 3/7/62 15/11/62 4/10/62
f 4/10/63 16/14/63 5/13/63
f 5/13/64 13/2/64 1/1/64
f 1/1/65 12/5/65 2/48/65
f 2/48/66 14/8/66 3/7/66
f 3/7/61 4/10/61 5/13/61
f 5/13/61 1/1/61 2/48/61
