# Blender 3.6.1
# www.blender.org
mtllib DamageBall.mtl
o ICOçƒ.001
v 0.000000 -1.659821 0.000000
v 1.201058 -0.742304 0.872610
v -0.458755 -0.742305 1.411925
v -1.484587 -0.742298 0.000000
v -0.458755 -0.742305 -1.411925
v 1.201058 -0.742304 -0.872610
v 0.458755 0.742305 1.411925
v -1.201058 0.742304 0.872610
v -1.201058 0.742304 -0.872610
v 0.458755 0.742305 -1.411925
v 1.484587 0.742298 0.000000
v 0.000000 1.659821 0.000000
v -0.269647 -1.411934 0.829902
v 0.705959 -1.411933 0.512904
v 0.436315 -0.872630 1.342814
v 1.411923 -0.872627 0.000000
v 0.705959 -1.411933 -0.512904
v -0.872617 -1.411929 0.000000
v -1.142271 -0.872628 0.829905
v -0.269647 -1.411934 -0.829902
v -1.142271 -0.872628 -0.829905
v 0.436315 -0.872630 -1.342814
v 1.578586 0.000000 0.512906
v 1.578586 0.000000 -0.512906
v 0.000000 0.000000 1.659821
v 0.975619 0.000000 1.342823
v -1.578586 0.000000 0.512906
v -0.975619 0.000000 1.342823
v -0.975619 0.000000 -1.342823
v -1.578586 0.000000 -0.512906
v 0.975619 0.000000 -1.342823
v 0.000000 0.000000 -1.659821
v 1.142271 0.872628 0.829905
v -0.436315 0.872630 1.342814
v -1.411923 0.872627 0.000000
v -0.436315 0.872630 -1.342814
v 1.142271 0.872628 -0.829905
v 0.269647 1.411934 0.829902
v 0.872617 1.411929 0.000000
v -0.705959 1.411933 0.512904
v -0.705959 1.411933 -0.512904
v 0.269647 1.411934 -0.829902
v -0.000006 -2.447051 0.000000
v 1.031775 -0.637680 0.749619
v -0.394095 -0.637680 1.212921
v -1.275341 -0.637674 0.000000
v -0.394095 -0.637680 -1.212921
v 1.031775 -0.637680 -0.749619
v 0.394095 0.637680 1.212921
v -1.031775 0.637680 0.749619
v -1.031775 0.637680 -0.749619
v 0.394095 0.637680 -1.212921
v 1.275341 0.637674 0.000000
v 0.000005 2.333518 -0.000000
v -0.237398 -1.287068 0.758849
v 0.680056 -1.376707 0.534954
v 0.664551 -1.329098 2.045203
v 1.897970 -1.173034 0.000000
v 0.639694 -1.287664 -0.459905
v -0.840907 -1.372064 0.011794
v -1.584512 -1.210482 1.151206
v -0.231642 -1.212928 -0.712932
v -1.522623 -1.163202 -1.106242
v 0.626652 -1.253300 -1.928569
v 1.356091 0.000000 0.440614
v 1.356091 0.000000 -0.440614
v 0.000000 0.000000 1.425876
v 0.838110 0.000000 1.153558
v -1.356091 0.000000 0.440614
v -0.838110 0.000000 1.153558
v -0.838110 0.000000 -1.153558
v -1.356091 0.000000 -0.440614
v 0.838110 0.000000 -1.153558
v 0.000000 0.000000 -1.425876
v 1.517889 1.159586 1.102802
v -0.603902 1.207801 1.858555
v -1.838382 1.136206 0.000000
v -0.619677 1.239351 -1.907104
v 1.626863 1.242837 -1.181975
v 0.231642 1.212928 0.712932
v 0.749626 1.212924 0.000000
v -0.606458 1.212928 0.440612
v -0.606458 1.212928 -0.440612
v 0.231642 1.212928 -0.712932
v 0.000000 -1.000000 0.000000
v 0.723607 -0.447220 0.525725
v -0.276388 -0.447220 0.850649
v -0.894426 -0.447216 0.000000
v -0.276388 -0.447220 -0.850649
v 0.723607 -0.447220 -0.525725
v 0.276388 0.447220 0.850649
v -0.723607 0.447220 0.525725
v -0.723607 0.447220 -0.525725
v 0.276388 0.447220 -0.850649
v 0.894426 0.447216 0.000000
v 0.000000 1.000000 0.000000
v -0.162456 -0.850655 0.499995
v 0.425323 -0.850654 0.309011
v 0.262869 -0.525738 0.809012
v 0.850648 -0.525736 0.000000
v 0.425323 -0.850654 -0.309011
v -0.525730 -0.850652 0.000000
v -0.688189 -0.525736 0.499997
v -0.162456 -0.850655 -0.499995
v -0.688189 -0.525736 -0.499997
v 0.262869 -0.525738 -0.809012
v 0.951058 0.000000 0.309013
v 0.951058 0.000000 -0.309013
v 0.000000 0.000000 1.000000
v 0.587786 0.000000 0.809017
v -0.951058 0.000000 0.309013
v -0.587786 0.000000 0.809017
v -0.587786 0.000000 -0.809017
v -0.951058 0.000000 -0.309013
v 0.587786 0.000000 -0.809017
v 0.000000 0.000000 -1.000000
v 0.688189 0.525736 0.499997
v -0.262869 0.525738 0.809012
v -0.850648 0.525736 0.000000
v -0.262869 0.525738 -0.809012
v 0.688189 0.525736 -0.499997
v 0.162456 0.850654 0.499995
v 0.525730 0.850652 0.000000
v -0.425323 0.850654 0.309011
v -0.425323 0.850654 -0.309011
v 0.162456 0.850654 -0.499995
v 0.000000 -1.000000 0.000000
v 0.723607 -0.447220 0.525725
v -0.276388 -0.447220 0.850649
v -0.894426 -0.447216 0.000000
v -0.276388 -0.447220 -0.850649
v 0.723607 -0.447220 -0.525725
v 0.276388 0.447220 0.850649
v -0.723607 0.447220 0.525725
v -0.723607 0.447220 -0.525725
v 0.276388 0.447220 -0.850649
v 0.894426 0.447216 0.000000
v 0.000000 1.000000 0.000000
v -0.162456 -0.850655 0.499995
v 0.425323 -0.850654 0.309011
v 0.262869 -0.525738 0.809012
v 0.850648 -0.525736 0.000000
v 0.425323 -0.850654 -0.309011
v -0.525730 -0.850652 0.000000
v -0.688189 -0.525736 0.499997
v -0.162456 -0.850655 -0.499995
v -0.688189 -0.525736 -0.499997
v 0.262869 -0.525738 -0.809012
v 0.951058 0.000000 0.309013
v 0.951058 0.000000 -0.309013
v 0.000000 0.000000 1.000000
v 0.587786 0.000000 0.809017
v -0.951058 0.000000 0.309013
v -0.587786 0.000000 0.809017
v -0.587786 0.000000 -0.809017
v -0.951058 0.000000 -0.309013
v 0.587786 0.000000 -0.809017
v 0.000000 0.000000 -1.000000
v 0.688189 0.525736 0.499997
v -0.262869 0.525738 0.809012
v -0.850648 0.525736 0.000000
v -0.262869 0.525738 -0.809012
v 0.688189 0.525736 -0.499997
v 0.162456 0.850654 0.499995
v 0.525730 0.850652 0.000000
v -0.425323 0.850654 0.309011
v -0.425323 0.850654 -0.309011
v 0.162456 0.850654 -0.499995
vn 0.1024 -0.9435 0.3151
vn 0.7002 -0.6617 0.2680
vn -0.2680 -0.9435 0.1947
vn -0.2680 -0.9435 -0.1947
vn 0.1024 -0.9435 -0.3151
vn 0.9050 -0.3304 0.2680
vn 0.0247 -0.3304 0.9435
vn -0.8897 -0.3304 0.3151
vn -0.5746 -0.3304 -0.7488
vn 0.5346 -0.3304 -0.7779
vn 0.8026 -0.1256 0.5831
vn -0.3066 -0.1256 0.9435
vn -0.9921 -0.1256 -0.0000
vn -0.3066 -0.1256 -0.9435
vn 0.8026 -0.1256 -0.5831
vn 0.4089 0.6617 0.6284
vn -0.4713 0.6617 0.5831
vn -0.7002 0.6617 -0.2680
vn 0.0385 0.6617 -0.7488
vn 0.7240 0.6617 -0.1947
vn 0.2680 0.9435 -0.1947
vn 0.4911 0.7947 -0.3568
vn 0.4089 0.6617 -0.6284
vn -0.1024 0.9435 -0.3151
vn -0.1876 0.7947 -0.5773
vn -0.4713 0.6617 -0.5831
vn -0.3313 0.9435 -0.0000
vn -0.6071 0.7947 -0.0000
vn -0.7002 0.6617 0.2680
vn -0.1024 0.9435 0.3151
vn -0.1876 0.7947 0.5773
vn 0.0385 0.6617 0.7488
vn 0.2680 0.9435 0.1947
vn 0.4911 0.7947 0.3568
vn 0.7240 0.6617 0.1947
vn 0.8897 0.3304 -0.3151
vn 0.7947 0.1876 -0.5773
vn 0.5746 0.3304 -0.7488
vn -0.0247 0.3304 -0.9435
vn -0.3035 0.1876 -0.9342
vn -0.5346 0.3304 -0.7779
vn -0.9050 0.3304 -0.2680
vn -0.9822 0.1876 -0.0000
vn -0.9050 0.3304 0.2680
vn -0.5346 0.3304 0.7779
vn -0.3035 0.1876 0.9342
vn -0.0247 0.3304 0.9435
vn 0.5746 0.3304 0.7488
vn 0.7947 0.1876 0.5773
vn 0.8897 0.3304 0.3151
vn 0.3066 0.1256 -0.9435
vn 0.3035 -0.1876 -0.9342
vn 0.0247 -0.3304 -0.9435
vn -0.8026 0.1256 -0.5831
vn -0.7947 -0.1876 -0.5773
vn -0.8897 -0.3304 -0.3151
vn -0.8026 0.1256 0.5831
vn -0.7947 -0.1876 0.5773
vn -0.5746 -0.3304 0.7488
vn 0.3066 0.1256 0.9435
vn 0.3035 -0.1876 0.9342
vn 0.5346 -0.3304 0.7779
vn 0.9921 0.1256 -0.0000
vn 0.9822 -0.1876 -0.0000
vn 0.9050 -0.3304 -0.2680
vn 0.4713 -0.6617 -0.5831
vn 0.1876 -0.7947 -0.5773
vn -0.0385 -0.6617 -0.7488
vn -0.4089 -0.6617 -0.6284
vn -0.4911 -0.7947 -0.3568
vn -0.7240 -0.6617 -0.1947
vn -0.7240 -0.6617 0.1947
vn -0.4911 -0.7947 0.3568
vn -0.4089 -0.6617 0.6284
vn 0.7002 -0.6617 -0.2680
vn 0.6071 -0.7947 -0.0000
vn 0.3313 -0.9435 -0.0000
vn -0.0385 -0.6617 0.7488
vn 0.1876 -0.7947 0.5773
vn 0.4713 -0.6617 0.5831
vn 0.1546 -0.5185 0.8410
vn 0.4223 -0.4324 0.7967
vn -0.6410 -0.5077 0.5756
vn -0.6184 -0.4769 -0.6246
vn 0.2112 -0.4589 -0.8630
vn 0.6631 0.0253 0.7481
vn -0.5796 0.0877 0.8101
vn -0.9700 0.0425 -0.2393
vn -0.1035 0.0205 -0.9944
vn 0.9339 0.0604 -0.3524
vn -0.2072 0.6078 0.7666
vn -0.8032 0.5958 0.0036
vn -0.2995 0.6138 -0.7305
vn 0.6646 0.5882 -0.4608
vn 0.6427 0.5874 0.4919
vn 0.7115 0.4760 -0.5169
vn -0.0172 0.9998 0.0125
vn -0.2692 0.5874 -0.7632
vn -0.2718 0.4760 -0.8364
vn 0.0058 0.9998 0.0180
vn -0.8085 0.5882 0.0179
vn -0.8795 0.4760 -0.0000
vn -0.0622 0.9981 -0.0000
vn -0.2995 0.6138 0.7305
vn -0.2718 0.4760 0.8364
vn -0.0012 1.0000 0.0036
vn 0.6476 0.5958 0.4750
vn 0.7115 0.4760 0.5169
vn 0.0340 0.9991 0.0247
vn 0.6651 0.6078 -0.4339
vn 0.9645 -0.0562 0.2581
vn 0.7158 -0.4661 -0.5200
vn 0.0526 -0.0562 -0.9970
vn 0.5418 -0.0548 -0.8387
vn -0.2737 -0.4640 -0.8425
vn -0.9313 -0.0548 -0.3600
vn -0.6829 -0.0066 -0.7304
vn -0.9205 -0.3907 -0.0000
vn -0.6829 -0.0066 0.7304
vn -0.9248 -0.0414 0.3781
vn -0.2769 -0.4438 0.8523
vn 0.5260 -0.0413 0.8495
vn 0.1061 -0.0187 0.9942
vn 0.7382 -0.4093 0.5363
vn 0.9783 -0.0187 -0.2063
vn 0.2724 0.4724 -0.8382
vn -0.5484 0.0604 -0.8341
vn -0.7372 0.4120 -0.5356
vn -0.9777 0.0205 0.2088
vn -0.7243 0.4456 0.5262
vn -0.0721 0.0425 0.9965
vn 0.2653 0.5130 0.8164
vn 0.9451 0.0877 0.3147
vn 0.9078 0.4194 -0.0000
vn 0.6631 0.0253 -0.7481
vn 0.8522 -0.5229 -0.0198
vn -0.0789 -0.9966 -0.0226
vn -0.6716 -0.5849 -0.4548
vn 0.2101 -0.6069 -0.7665
vn 0.0221 -0.9802 -0.1966
vn -0.7927 -0.4626 0.3970
vn -0.7709 -0.4630 -0.4374
vn -0.0190 -0.9916 0.1282
vn 0.2102 -0.5257 0.8243
vn 0.3314 -0.5436 -0.7711
vn 0.1242 -0.9879 -0.0935
vn 0.8590 -0.5057 -0.0801
vn -0.7123 -0.5095 0.4828
vn -0.0898 -0.9955 0.0305
vn 0.9001 -0.4351 0.0230
vt 0.181819 0.000000
vt 0.227273 0.078731
vt 0.136365 0.078731
vt 0.272728 0.157461
vt 0.318182 0.078731
vt 0.363637 0.157461
vt 0.909091 0.000000
vt 0.954545 0.078731
vt 0.863636 0.078731
vt 0.727273 0.000000
vt 0.772727 0.078731
vt 0.681818 0.078731
vt 0.545455 0.000000
vt 0.590909 0.078731
vt 0.500000 0.078731
vt 0.318182 0.236191
vt 0.090910 0.157461
vt 0.181819 0.157461
vt 0.136365 0.236191
vt 0.818182 0.157461
vt 0.909091 0.157461
vt 0.863636 0.236191
vt 0.636364 0.157461
vt 0.727273 0.157461
vt 0.681818 0.236191
vt 0.454546 0.157461
vt 0.545455 0.157461
vt 0.500000 0.236191
vt 0.227273 0.236191
vt 0.045455 0.236191
vt 0.772727 0.236191
vt 0.590909 0.236191
vt 0.409092 0.236191
vt 0.181819 0.314921
vt 0.272728 0.314921
vt 0.227273 0.393651
vt 0.000000 0.314921
vt 0.090910 0.314921
vt 0.045455 0.393651
vt 0.727273 0.314921
vt 0.818182 0.314921
vt 0.772727 0.393651
vt 0.545455 0.314921
vt 0.636364 0.314921
vt 0.590909 0.393651
vt 0.363637 0.314921
vt 0.454546 0.314921
vt 0.409092 0.393651
vt 0.500000 0.393651
vt 0.454546 0.472382
vt 0.681818 0.393651
vt 0.636364 0.472382
vt 0.863636 0.393651
vt 0.818182 0.472382
vt 0.909091 0.314921
vt 0.136365 0.393651
vt 0.090910 0.472382
vt 0.318182 0.393651
vt 0.272728 0.472382
vt 0.954545 0.236191
vt 1.000000 0.157461
vt 0.409092 0.078731
vt 0.363637 0.000000
s 0
f 1/1/1 14/2/1 13/3/1
f 2/4/2 14/5/2 16/6/2
f 1/7/3 13/8/3 18/9/3
f 1/10/4 18/11/4 20/12/4
f 1/13/5 20/14/5 17/15/5
f 2/4/6 16/6/6 23/16/6
f 3/17/7 15/18/7 25/19/7
f 4/20/8 19/21/8 27/22/8
f 5/23/9 21/24/9 29/25/9
f 6/26/10 22/27/10 31/28/10
f 2/4/11 23/16/11 26/29/11
f 3/17/12 25/19/12 28/30/12
f 4/20/13 27/22/13 30/31/13
f 5/23/14 29/25/14 32/32/14
f 6/26/15 31/28/15 24/33/15
f 7/34/16 33/35/16 38/36/16
f 8/37/17 34/38/17 40/39/17
f 9/40/18 35/41/18 41/42/18
f 10/43/19 36/44/19 42/45/19
f 11/46/20 37/47/20 39/48/20
f 39/48/21 42/49/21 12/50/21
f 39/48/22 37/47/22 42/49/22
f 37/47/23 10/43/23 42/49/23
f 42/45/24 41/51/24 12/52/24
f 42/45/25 36/44/25 41/51/25
f 36/44/26 9/40/26 41/51/26
f 41/42/27 40/53/27 12/54/27
f 41/42/28 35/41/28 40/53/28
f 35/41/29 8/55/29 40/53/29
f 40/39/30 38/56/30 12/57/30
f 40/39/31 34/38/31 38/56/31
f 34/38/32 7/34/32 38/56/32
f 38/36/33 39/58/33 12/59/33
f 38/36/34 33/35/34 39/58/34
f 33/35/35 11/46/35 39/58/35
f 24/33/36 37/47/36 11/46/36
f 24/33/37 31/28/37 37/47/37
f 31/28/38 10/43/38 37/47/38
f 32/32/39 36/44/39 10/43/39
f 32/32/40 29/25/40 36/44/40
f 29/25/41 9/40/41 36/44/41
f 30/31/42 35/41/42 9/40/42
f 30/31/43 27/22/43 35/41/43
f 27/22/44 8/55/44 35/41/44
f 28/30/45 34/38/45 8/37/45
f 28/30/46 25/19/46 34/38/46
f 25/19/47 7/34/47 34/38/47
f 26/29/48 33/35/48 7/34/48
f 26/29/49 23/16/49 33/35/49
f 23/16/50 11/46/50 33/35/50
f 31/28/51 32/32/51 10/43/51
f 31/28/52 22/27/52 32/32/52
f 22/27/53 5/23/53 32/32/53
f 29/25/54 30/31/54 9/40/54
f 29/25/55 21/24/55 30/31/55
f 21/24/56 4/20/56 30/31/56
f 27/22/57 28/60/57 8/55/57
f 27/22/58 19/21/58 28/60/58
f 19/21/59 3/61/59 28/60/59
f 25/19/60 26/29/60 7/34/60
f 25/19/61 15/18/61 26/29/61
f 15/18/62 2/4/62 26/29/62
f 23/16/63 24/33/63 11/46/63
f 23/16/64 16/6/64 24/33/64
f 16/6/65 6/26/65 24/33/65
f 17/15/66 22/27/66 6/26/66
f 17/15/67 20/14/67 22/27/67
f 20/14/68 5/23/68 22/27/68
f 20/12/69 21/24/69 5/23/69
f 20/12/70 18/11/70 21/24/70
f 18/11/71 4/20/71 21/24/71
f 18/9/72 19/21/72 4/20/72
f 18/9/73 13/8/73 19/21/73
f 13/8/74 3/61/74 19/21/74
f 16/6/75 17/62/75 6/26/75
f 16/6/76 14/5/76 17/62/76
f 14/5/77 1/63/77 17/62/77
f 13/3/78 15/18/78 3/17/78
f 13/3/79 14/2/79 15/18/79
f 14/2/80 2/4/80 15/18/80
f 43/1/81 56/2/81 55/3/81
f 44/4/82 56/5/82 58/6/82
f 43/7/83 55/8/83 60/9/83
f 43/10/84 60/11/84 62/12/84
f 43/13/85 62/14/85 59/15/85
f 44/4/86 58/6/86 65/16/86
f 45/17/87 57/18/87 67/19/87
f 46/20/88 61/21/88 69/22/88
f 47/23/89 63/24/89 71/25/89
f 48/26/90 64/27/90 73/28/90
f 44/4/11 65/16/11 68/29/11
f 45/17/12 67/19/12 70/30/12
f 46/20/13 69/22/13 72/31/13
f 47/23/14 71/25/14 74/32/14
f 48/26/15 73/28/15 66/33/15
f 49/34/91 75/35/91 80/36/91
f 50/37/92 76/38/92 82/39/92
f 51/40/93 77/41/93 83/42/93
f 52/43/94 78/44/94 84/45/94
f 53/46/95 79/47/95 81/48/95
f 81/48/96 84/49/96 54/50/96
f 81/48/97 79/47/97 84/49/97
f 79/47/98 52/43/98 84/49/98
f 84/45/99 83/51/99 54/52/99
f 84/45/100 78/44/100 83/51/100
f 78/44/101 51/40/101 83/51/101
f 83/42/102 82/53/102 54/54/102
f 83/42/103 77/41/103 82/53/103
f 77/41/104 50/55/104 82/53/104
f 82/39/105 80/56/105 54/57/105
f 82/39/106 76/38/106 80/56/106
f 76/38/107 49/34/107 80/56/107
f 80/36/108 81/58/108 54/59/108
f 80/36/109 75/35/109 81/58/109
f 75/35/110 53/46/110 81/58/110
f 66/33/111 79/47/111 53/46/111
f 66/33/112 73/28/112 79/47/112
f 73/28/113 52/43/113 79/47/113
f 74/32/114 78/44/114 52/43/114
f 74/32/115 71/25/115 78/44/115
f 71/25/116 51/40/116 78/44/116
f 72/31/117 77/41/117 51/40/117
f 72/31/118 69/22/118 77/41/118
f 69/22/119 50/55/119 77/41/119
f 70/30/120 76/38/120 50/37/120
f 70/30/121 67/19/121 76/38/121
f 67/19/122 49/34/122 76/38/122
f 68/29/123 75/35/123 49/34/123
f 68/29/124 65/16/124 75/35/124
f 65/16/125 53/46/125 75/35/125
f 73/28/51 74/32/51 52/43/51
f 73/28/126 64/27/126 74/32/126
f 64/27/127 47/23/127 74/32/127
f 71/25/54 72/31/54 51/40/54
f 71/25/128 63/24/128 72/31/128
f 63/24/129 46/20/129 72/31/129
f 69/22/57 70/60/57 50/55/57
f 69/22/130 61/21/130 70/60/130
f 61/21/131 45/61/131 70/60/131
f 67/19/60 68/29/60 49/34/60
f 67/19/132 57/18/132 68/29/132
f 57/18/133 44/4/133 68/29/133
f 65/16/63 66/33/63 53/46/63
f 65/16/134 58/6/134 66/33/134
f 58/6/135 48/26/135 66/33/135
f 59/15/136 64/27/136 48/26/136
f 59/15/137 62/14/137 64/27/137
f 62/14/138 47/23/138 64/27/138
f 62/12/139 63/24/139 47/23/139
f 62/12/140 60/11/140 63/24/140
f 60/11/141 46/20/141 63/24/141
f 60/9/142 61/21/142 46/20/142
f 60/9/143 55/8/143 61/21/143
f 55/8/144 45/61/144 61/21/144
f 58/6/145 59/62/145 48/26/145
f 58/6/146 56/5/146 59/62/146
f 56/5/147 43/63/147 59/62/147
f 55/3/148 57/18/148 45/17/148
f 55/3/149 56/2/149 57/18/149
f 56/2/150 44/4/150 57/18/150
f 85/1/1 98/2/1 97/3/1
f 86/4/2 98/5/2 100/6/2
f 85/7/3 97/8/3 102/9/3
f 85/10/4 102/11/4 104/12/4
f 85/13/5 104/14/5 101/15/5
f 86/4/6 100/6/6 107/16/6
f 87/17/7 99/18/7 109/19/7
f 88/20/8 103/21/8 111/22/8
f 89/23/9 105/24/9 113/25/9
f 90/26/10 106/27/10 115/28/10
f 86/4/11 107/16/11 110/29/11
f 87/17/12 109/19/12 112/30/12
f 88/20/13 111/22/13 114/31/13
f 89/23/14 113/25/14 116/32/14
f 90/26/15 115/28/15 108/33/15
f 91/34/16 117/35/16 122/36/16
f 92/37/17 118/38/17 124/39/17
f 93/40/18 119/41/18 125/42/18
f 94/43/19 120/44/19 126/45/19
f 95/46/20 121/47/20 123/48/20
f 123/48/21 126/49/21 96/50/21
f 123/48/22 121/47/22 126/49/22
f 121/47/23 94/43/23 126/49/23
f 126/45/24 125/51/24 96/52/24
f 126/45/25 120/44/25 125/51/25
f 120/44/26 93/40/26 125/51/26
f 125/42/27 124/53/27 96/54/27
f 125/42/28 119/41/28 124/53/28
f 119/41/29 92/55/29 124/53/29
f 124/39/30 122/56/30 96/57/30
f 124/39/31 118/38/31 122/56/31
f 118/38/32 91/34/32 122/56/32
f 122/36/33 123/58/33 96/59/33
f 122/36/34 117/35/34 123/58/34
f 117/35/35 95/46/35 123/58/35
f 108/33/36 121/47/36 95/46/36
f 108/33/37 115/28/37 121/47/37
f 115/28/38 94/43/38 121/47/38
f 116/32/39 120/44/39 94/43/39
f 116/32/40 113/25/40 120/44/40
f 113/25/41 93/40/41 120/44/41
f 114/31/42 119/41/42 93/40/42
f 114/31/43 111/22/43 119/41/43
f 111/22/44 92/55/44 119/41/44
f 112/30/45 118/38/45 92/37/45
f 112/30/46 109/19/46 118/38/46
f 109/19/47 91/34/47 118/38/47
f 110/29/48 117/35/48 91/34/48
f 110/29/49 107/16/49 117/35/49
f 107/16/50 95/46/50 117/35/50
f 115/28/51 116/32/51 94/43/51
f 115/28/52 106/27/52 116/32/52
f 106/27/53 89/23/53 116/32/53
f 113/25/54 114/31/54 93/40/54
f 113/25/55 105/24/55 114/31/55
f 105/24/56 88/20/56 114/31/56
f 111/22/57 112/60/57 92/55/57
f 111/22/58 103/21/58 112/60/58
f 103/21/59 87/61/59 112/60/59
f 109/19/60 110/29/60 91/34/60
f 109/19/61 99/18/61 110/29/61
f 99/18/62 86/4/62 110/29/62
f 107/16/63 108/33/63 95/46/63
f 107/16/64 100/6/64 108/33/64
f 100/6/65 90/26/65 108/33/65
f 101/15/66 106/27/66 90/26/66
f 101/15/67 104/14/67 106/27/67
f 104/14/68 89/23/68 106/27/68
f 104/12/69 105/24/69 89/23/69
f 104/12/70 102/11/70 105/24/70
f 102/11/71 88/20/71 105/24/71
f 102/9/72 103/21/72 88/20/72
f 102/9/73 97/8/73 103/21/73
f 97/8/74 87/61/74 103/21/74
f 100/6/75 101/62/75 90/26/75
f 100/6/76 98/5/76 101/62/76
f 98/5/77 85/63/77 101/62/77
f 97/3/78 99/18/78 87/17/78
f 97/3/79 98/2/79 99/18/79
f 98/2/80 86/4/80 99/18/80
f 127/1/1 140/2/1 139/3/1
f 128/4/2 140/5/2 142/6/2
f 127/7/3 139/8/3 144/9/3
f 127/10/4 144/11/4 146/12/4
f 127/13/5 146/14/5 143/15/5
f 128/4/6 142/6/6 149/16/6
f 129/17/7 141/18/7 151/19/7
f 130/20/8 145/21/8 153/22/8
f 131/23/9 147/24/9 155/25/9
f 132/26/10 148/27/10 157/28/10
f 128/4/11 149/16/11 152/29/11
f 129/17/12 151/19/12 154/30/12
f 130/20/13 153/22/13 156/31/13
f 131/23/14 155/25/14 158/32/14
f 132/26/15 157/28/15 150/33/15
f 133/34/16 159/35/16 164/36/16
f 134/37/17 160/38/17 166/39/17
f 135/40/18 161/41/18 167/42/18
f 136/43/19 162/44/19 168/45/19
f 137/46/20 163/47/20 165/48/20
f 165/48/21 168/49/21 138/50/21
f 165/48/22 163/47/22 168/49/22
f 163/47/23 136/43/23 168/49/23
f 168/45/24 167/51/24 138/52/24
f 168/45/25 162/44/25 167/51/25
f 162/44/26 135/40/26 167/51/26
f 167/42/27 166/53/27 138/54/27
f 167/42/28 161/41/28 166/53/28
f 161/41/29 134/55/29 166/53/29
f 166/39/30 164/56/30 138/57/30
f 166/39/31 160/38/31 164/56/31
f 160/38/32 133/34/32 164/56/32
f 164/36/33 165/58/33 138/59/33
f 164/36/34 159/35/34 165/58/34
f 159/35/35 137/46/35 165/58/35
f 150/33/36 163/47/36 137/46/36
f 150/33/37 157/28/37 163/47/37
f 157/28/38 136/43/38 163/47/38
f 158/32/39 162/44/39 136/43/39
f 158/32/40 155/25/40 162/44/40
f 155/25/41 135/40/41 162/44/41
f 156/31/42 161/41/42 135/40/42
f 156/31/43 153/22/43 161/41/43
f 153/22/44 134/55/44 161/41/44
f 154/30/45 160/38/45 134/37/45
f 154/30/46 151/19/46 160/38/46
f 151/19/47 133/34/47 160/38/47
f 152/29/48 159/35/48 133/34/48
f 152/29/49 149/16/49 159/35/49
f 149/16/50 137/46/50 159/35/50
f 157/28/51 158/32/51 136/43/51
f 157/28/52 148/27/52 158/32/52
f 148/27/53 131/23/53 158/32/53
f 155/25/54 156/31/54 135/40/54
f 155/25/55 147/24/55 156/31/55
f 147/24/56 130/20/56 156/31/56
f 153/22/57 154/60/57 134/55/57
f 153/22/58 145/21/58 154/60/58
f 145/21/59 129/61/59 154/60/59
f 151/19/60 152/29/60 133/34/60
f 151/19/61 141/18/61 152/29/61
f 141/18/62 128/4/62 152/29/62
f 149/16/63 150/33/63 137/46/63
f 149/16/64 142/6/64 150/33/64
f 142/6/65 132/26/65 150/33/65
f 143/15/66 148/27/66 132/26/66
f 143/15/67 146/14/67 148/27/67
f 146/14/68 131/23/68 148/27/68
f 146/12/69 147/24/69 131/23/69
f 146/12/70 144/11/70 147/24/70
f 144/11/71 130/20/71 147/24/71
f 144/9/72 145/21/72 130/20/72
f 144/9/73 139/8/73 145/21/73
f 139/8/74 129/61/74 145/21/74
f 142/6/75 143/62/75 132/26/75
f 142/6/76 140/5/76 143/62/76
f 140/5/77 127/63/77 143/62/77
f 139/3/78 141/18/78 129/17/78
f 139/3/79 140/2/79 141/18/79
f 140/2/80 128/4/80 141/18/80
