# Blender 3.6.1
# www.blender.org
mtllib LevelMax.mtl
o テキスト.001
v 2.507000 1.565668 0.325475
v 2.389000 1.565668 0.325475
v 2.157000 1.847668 0.325475
v 1.922000 1.565668 0.325475
v 1.803000 1.565668 0.325475
v 2.097000 1.918668 0.325475
v 1.824000 2.247668 0.325475
v 1.943000 2.247668 0.325475
v 2.157000 1.987668 0.325475
v 2.370000 2.247668 0.325475
v 2.488000 2.247668 0.325475
v 2.216000 1.918668 0.325475
v 1.701000 1.565668 0.325475
v 1.610000 1.766668 0.325475
v 1.320000 1.766668 0.325475
v 1.234000 1.565668 0.325475
v 1.134000 1.565668 0.325475
v 1.427000 2.251668 0.325475
v 1.496000 2.251668 0.325475
v 1.801000 1.565668 0.325475
v 1.570000 1.854668 0.325475
v 1.460000 2.101668 0.325475
v 1.358000 1.854668 0.325475
v 0.964000 1.565668 0.325475
v 0.964000 2.096668 0.325475
v 0.962000 2.096668 0.325475
v 0.752000 1.832668 0.325475
v 0.736000 1.832668 0.325475
v 0.526000 2.096668 0.325475
v 0.524000 2.096668 0.325475
v 0.524000 1.565668 0.325475
v 0.426000 1.565668 0.325475
v 0.426000 2.247668 0.325475
v 0.518000 2.247668 0.325475
v 0.744000 1.967668 0.325475
v 0.971000 2.247668 0.325475
v 1.062000 2.247668 0.325475
v 1.062000 1.565668 0.325475
v 0.065000 1.653668 0.325475
v 0.065000 1.565668 0.325475
v -0.341000 1.565668 0.325475
v -0.341000 2.247668 0.325475
v -0.243000 2.247668 0.325475
v -0.243000 1.653668 0.325475
v -0.742000 2.159668 0.325475
v -0.742000 1.953668 0.325475
v -0.463000 1.953668 0.325475
v -0.463000 1.865668 0.325475
v -0.742000 1.865668 0.325475
v -0.742000 1.653668 0.325475
v -0.444000 1.653668 0.325475
v -0.444000 1.565668 0.325475
v -0.840000 1.565668 0.325475
v -0.840000 2.247668 0.325475
v -0.453000 2.247668 0.325475
v -0.453000 2.159668 0.325475
v -1.224000 1.559668 0.325475
v -1.519000 2.247668 0.325475
v -1.421000 2.247668 0.325475
v -1.216000 1.768668 0.325475
v -1.012000 2.247668 0.325475
v -0.915000 2.247668 0.325475
v -1.204000 1.559668 0.325475
v -1.846000 2.159668 0.325475
v -1.846000 1.953668 0.325475
v -1.567000 1.953668 0.325475
v -1.567000 1.865668 0.325475
v -1.846000 1.865668 0.325475
v -1.846000 1.653668 0.325475
v -1.548000 1.653668 0.325475
v -1.548000 1.565668 0.325475
v -1.944000 1.565668 0.325475
v -1.944000 2.247668 0.325475
v -1.557000 2.247668 0.325475
v -1.557000 2.159668 0.325475
v -2.029000 1.653668 0.325475
v -2.029000 1.565668 0.325475
v -2.435000 1.565668 0.325475
v -2.435000 2.247668 0.325475
v -2.337000 2.247668 0.325475
v -2.337000 1.653668 0.325475
v 2.507000 1.565668 0.225475
v 2.389000 1.565668 0.225475
v 2.157000 1.847668 0.225475
v 1.922000 1.565668 0.225475
v 1.803000 1.565668 0.225475
v 2.097000 1.918668 0.225475
v 1.824000 2.247668 0.225475
v 1.943000 2.247668 0.225475
v 2.157000 1.987668 0.225475
v 2.370000 2.247668 0.225475
v 2.488000 2.247668 0.225475
v 2.216000 1.918668 0.225475
v 1.701000 1.565668 0.225475
v 1.610000 1.766668 0.225475
v 1.320000 1.766668 0.225475
v 1.234000 1.565668 0.225475
v 1.134000 1.565668 0.225475
v 1.427000 2.251668 0.225475
v 1.496000 2.251668 0.225475
v 1.801000 1.565668 0.225475
v 1.570000 1.854668 0.225475
v 1.460000 2.101668 0.225475
v 1.358000 1.854668 0.225475
v 0.964000 1.565668 0.225475
v 0.964000 2.096668 0.225475
v 0.962000 2.096668 0.225475
v 0.752000 1.832668 0.225475
v 0.736000 1.832668 0.225475
v 0.526000 2.096668 0.225475
v 0.524000 2.096668 0.225475
v 0.524000 1.565668 0.225475
v 0.426000 1.565668 0.225475
v 0.426000 2.247668 0.225475
v 0.518000 2.247668 0.225475
v 0.744000 1.967668 0.225475
v 0.971000 2.247668 0.225475
v 1.062000 2.247668 0.225475
v 1.062000 1.565668 0.225475
v 0.065000 1.653668 0.225475
v 0.065000 1.565668 0.225475
v -0.341000 1.565668 0.225475
v -0.341000 2.247668 0.225475
v -0.243000 2.247668 0.225475
v -0.243000 1.653668 0.225475
v -0.742000 2.159668 0.225475
v -0.742000 1.953668 0.225475
v -0.463000 1.953668 0.225475
v -0.463000 1.865668 0.225475
v -0.742000 1.865668 0.225475
v -0.742000 1.653668 0.225475
v -0.444000 1.653668 0.225475
v -0.444000 1.565668 0.225475
v -0.840000 1.565668 0.225475
v -0.840000 2.247668 0.225475
v -0.453000 2.247668 0.225475
v -0.453000 2.159668 0.225475
v -1.224000 1.559668 0.225475
v -1.519000 2.247668 0.225475
v -1.421000 2.247668 0.225475
v -1.216000 1.768668 0.225475
v -1.012000 2.247668 0.225475
v -0.915000 2.247668 0.225475
v -1.204000 1.559668 0.225475
v -1.846000 2.159668 0.225475
v -1.846000 1.953668 0.225475
v -1.567000 1.953668 0.225475
v -1.567000 1.865668 0.225475
v -1.846000 1.865668 0.225475
v -1.846000 1.653668 0.225475
v -1.548000 1.653668 0.225475
v -1.548000 1.565668 0.225475
v -1.944000 1.565668 0.225475
v -1.944000 2.247668 0.225475
v -1.557000 2.247668 0.225475
v -1.557000 2.159668 0.225475
v -2.029000 1.653668 0.225475
v -2.029000 1.565668 0.225475
v -2.435000 1.565668 0.225475
v -2.435000 2.247668 0.225475
v -2.337000 2.247668 0.225475
v -2.337000 1.653668 0.225475
v -2.029000 1.653668 0.225475
v -2.029000 1.653668 0.325475
v -2.029000 1.565668 0.225475
v -2.029000 1.565668 0.325475
v -2.435000 1.565668 0.225475
v -2.435000 1.565668 0.325475
v -2.435000 2.247668 0.225475
v -2.435000 2.247668 0.325475
v -2.337000 2.247668 0.225475
v -2.337000 2.247668 0.325475
v -2.337000 1.653668 0.225475
v -2.337000 1.653668 0.325475
v -1.846000 2.159668 0.225475
v -1.846000 2.159668 0.325475
v -1.846000 1.953668 0.225475
v -1.846000 1.953668 0.325475
v -1.567000 1.953668 0.225475
v -1.567000 1.953668 0.325475
v -1.567000 1.865668 0.225475
v -1.567000 1.865668 0.325475
v -1.846000 1.865668 0.225475
v -1.846000 1.865668 0.325475
v -1.846000 1.653668 0.225475
v -1.846000 1.653668 0.325475
v -1.548000 1.653668 0.225475
v -1.548000 1.653668 0.325475
v -1.548000 1.565668 0.225475
v -1.548000 1.565668 0.325475
v -1.944000 1.565668 0.225475
v -1.944000 1.565668 0.325475
v -1.944000 2.247668 0.225475
v -1.944000 2.247668 0.325475
v -1.557000 2.247668 0.225475
v -1.557000 2.247668 0.325475
v -1.557000 2.159668 0.225475
v -1.557000 2.159668 0.325475
v -1.224000 1.559668 0.225475
v -1.224000 1.559668 0.325475
v -1.519000 2.247668 0.225475
v -1.519000 2.247668 0.325475
v -1.421000 2.247668 0.225475
v -1.421000 2.247668 0.325475
v -1.216000 1.768668 0.225475
v -1.216000 1.768668 0.325475
v -1.012000 2.247668 0.225475
v -1.012000 2.247668 0.325475
v -0.915000 2.247668 0.225475
v -0.915000 2.247668 0.325475
v -1.204000 1.559668 0.225475
v -1.204000 1.559668 0.325475
v -0.742000 2.159668 0.225475
v -0.742000 2.159668 0.325475
v -0.742000 1.953668 0.225475
v -0.742000 1.953668 0.325475
v -0.463000 1.953668 0.225475
v -0.463000 1.953668 0.325475
v -0.463000 1.865668 0.225475
v -0.463000 1.865668 0.325475
v -0.742000 1.865668 0.225475
v -0.742000 1.865668 0.325475
v -0.742000 1.653668 0.225475
v -0.742000 1.653668 0.325475
v -0.444000 1.653668 0.225475
v -0.444000 1.653668 0.325475
v -0.444000 1.565668 0.225475
v -0.444000 1.565668 0.325475
v -0.840000 1.565668 0.225475
v -0.840000 1.565668 0.325475
v -0.840000 2.247668 0.225475
v -0.840000 2.247668 0.325475
v -0.453000 2.247668 0.225475
v -0.453000 2.247668 0.325475
v -0.453000 2.159668 0.225475
v -0.453000 2.159668 0.325475
v 0.065000 1.653668 0.225475
v 0.065000 1.653668 0.325475
v 0.065000 1.565668 0.225475
v 0.065000 1.565668 0.325475
v -0.341000 1.565668 0.225475
v -0.341000 1.565668 0.325475
v -0.341000 2.247668 0.225475
v -0.341000 2.247668 0.325475
v -0.243000 2.247668 0.225475
v -0.243000 2.247668 0.325475
v -0.243000 1.653668 0.225475
v -0.243000 1.653668 0.325475
v 0.964000 1.565668 0.225475
v 0.964000 1.565668 0.325475
v 0.964000 2.096668 0.225475
v 0.964000 2.096668 0.325475
v 0.962000 2.096668 0.225475
v 0.962000 2.096668 0.325475
v 0.752000 1.832668 0.225475
v 0.752000 1.832668 0.325475
v 0.736000 1.832668 0.225475
v 0.736000 1.832668 0.325475
v 0.526000 2.096668 0.225475
v 0.526000 2.096668 0.325475
v 0.524000 2.096668 0.225475
v 0.524000 2.096668 0.325475
v 0.524000 1.565668 0.225475
v 0.524000 1.565668 0.325475
v 0.426000 1.565668 0.225475
v 0.426000 1.565668 0.325475
v 0.426000 2.247668 0.225475
v 0.426000 2.247668 0.325475
v 0.518000 2.247668 0.225475
v 0.518000 2.247668 0.325475
v 0.744000 1.967668 0.225475
v 0.744000 1.967668 0.325475
v 0.971000 2.247668 0.225475
v 0.971000 2.247668 0.325475
v 1.062000 2.247668 0.225475
v 1.062000 2.247668 0.325475
v 1.062000 1.565668 0.225475
v 1.062000 1.565668 0.325475
v 1.701000 1.565668 0.225475
v 1.701000 1.565668 0.325475
v 1.610000 1.766668 0.225475
v 1.610000 1.766668 0.325475
v 1.320000 1.766668 0.225475
v 1.320000 1.766668 0.325475
v 1.234000 1.565668 0.225475
v 1.234000 1.565668 0.325475
v 1.134000 1.565668 0.225475
v 1.134000 1.565668 0.325475
v 1.427000 2.251668 0.225475
v 1.427000 2.251668 0.325475
v 1.496000 2.251668 0.225475
v 1.496000 2.251668 0.325475
v 1.801000 1.565668 0.225475
v 1.801000 1.565668 0.325475
v 1.570000 1.854668 0.225475
v 1.570000 1.854668 0.325475
v 1.460000 2.101668 0.225475
v 1.460000 2.101668 0.325475
v 1.358000 1.854668 0.225475
v 1.358000 1.854668 0.325475
v 2.507000 1.565668 0.225475
v 2.507000 1.565668 0.325475
v 2.389000 1.565668 0.225475
v 2.389000 1.565668 0.325475
v 2.157000 1.847668 0.225475
v 2.157000 1.847668 0.325475
v 1.922000 1.565668 0.225475
v 1.922000 1.565668 0.325475
v 1.803000 1.565668 0.225475
v 1.803000 1.565668 0.325475
v 2.097000 1.918668 0.225475
v 2.097000 1.918668 0.325475
v 1.824000 2.247668 0.225475
v 1.824000 2.247668 0.325475
v 1.943000 2.247668 0.225475
v 1.943000 2.247668 0.325475
v 2.157000 1.987668 0.225475
v 2.157000 1.987668 0.325475
v 2.370000 2.247668 0.225475
v 2.370000 2.247668 0.325475
v 2.488000 2.247668 0.225475
v 2.488000 2.247668 0.325475
v 2.216000 1.918668 0.225475
v 2.216000 1.918668 0.325475
vn -0.0000 -0.0000 1.0000
vn -0.0000 -0.0000 -1.0000
vn 0.7071 -0.7071 -0.0000
vn 0.7071 0.7071 -0.0000
vn -0.7071 -0.7071 -0.0000
vn -0.7071 0.7071 -0.0000
vn -0.8349 0.5504 -0.0000
vn -0.5504 -0.8349 -0.0000
vn 0.5507 0.8347 -0.0000
vn -0.0009 1.0000 -0.0000
vn -0.5514 0.8342 -0.0000
vn 0.8328 0.5535 -0.0000
vn 0.5535 -0.8329 -0.0000
vn 0.4344 -0.9007 -0.0000
vn -0.4344 -0.9007 -0.0000
vn 0.4312 0.9022 -0.0000
vn 0.0011 1.0000 -0.0000
vn -0.4303 0.9027 -0.0000
vn -0.5420 -0.8404 -0.0000
vn 0.5507 -0.8347 -0.0000
vn -0.8345 -0.5510 -0.0000
vn -0.5510 0.8345 -0.0000
vn 0.5449 0.8385 -0.0000
vn 0.8385 -0.5449 -0.0000
vn 0.0137 -0.9999 -0.0000
vn -0.8387 0.5446 -0.0000
vn 0.8312 0.5560 -0.0000
vn -0.4270 -0.9042 -0.0000
vn 0.9045 -0.4266 -0.0000
vn -0.0032 -1.0000 -0.0000
vn 0.4242 -0.9056 -0.0000
vn -0.9055 -0.4243 -0.0000
vn -1.0000 0.0009 -0.0000
vn -0.9051 0.4251 -0.0000
vn 0.4269 0.9043 -0.0000
vn -0.0011 1.0000 -0.0000
vn -0.4279 0.9038 -0.0000
vn 0.9048 0.4259 -0.0000
vn 1.0000 -0.0007 -0.0000
vt 0.454545 0.000000
vt 0.636364 0.000000
vt 0.545455 0.000000
vt 0.727273 0.000000
vt 0.909091 0.000000
vt 0.818182 0.000000
vt 1.000000 0.000000
vt 0.363636 0.000000
vt 0.181818 0.000000
vt 0.000000 0.000000
vt 0.272727 0.000000
vt 0.090909 0.000000
vt 0.400000 0.000000
vt 0.600000 0.000000
vt 0.500000 0.000000
vt 0.900000 0.000000
vt 0.700000 0.000000
vt 0.800000 0.000000
vt 0.200000 0.000000
vt 0.100000 0.000000
vt 0.300000 0.000000
vt 0.571429 0.000000
vt 0.714286 0.000000
vt 0.642857 0.000000
vt 0.428571 0.000000
vt 0.357143 0.000000
vt 0.785714 0.000000
vt 0.928571 0.000000
vt 0.857143 0.000000
vt 0.142857 0.000000
vt 0.071429 0.000000
vt 0.285714 0.000000
vt 0.214286 0.000000
vt 0.333333 0.000000
vt 0.166667 0.000000
vt 0.833333 0.000000
vt 0.666667 0.000000
vt 0.166667 1.000000
vt 0.000000 1.000000
vt 0.333333 1.000000
vt 0.500000 1.000000
vt 0.666667 1.000000
vt 0.833333 1.000000
vt 1.000000 1.000000
vt 0.083333 1.000000
vt 0.083333 0.000000
vt 0.250000 1.000000
vt 0.250000 0.000000
vt 0.416667 1.000000
vt 0.416667 0.000000
vt 0.583333 1.000000
vt 0.583333 0.000000
vt 0.750000 1.000000
vt 0.750000 0.000000
vt 0.916667 1.000000
vt 0.916667 0.000000
vt 0.142857 1.000000
vt 0.285714 1.000000
vt 0.428571 1.000000
vt 0.571429 1.000000
vt 0.714286 1.000000
vt 0.857143 1.000000
vt 0.066667 1.000000
vt 0.133333 1.000000
vt 0.066667 0.000000
vt 0.200000 1.000000
vt 0.133333 0.000000
vt 0.266667 1.000000
vt 0.266667 0.000000
vt 0.400000 1.000000
vt 0.466667 1.000000
vt 0.533333 1.000000
vt 0.466667 0.000000
vt 0.600000 1.000000
vt 0.533333 0.000000
vt 0.733333 1.000000
vt 0.800000 1.000000
vt 0.733333 0.000000
vt 0.866667 1.000000
vt 0.933333 1.000000
vt 0.866667 0.000000
vt 0.933333 0.000000
vt 0.125000 1.000000
vt 0.125000 0.000000
vt 0.375000 1.000000
vt 0.375000 0.000000
vt 0.625000 1.000000
vt 0.625000 0.000000
vt 0.875000 1.000000
vt 0.875000 0.000000
s 0
usemtl マテリアル.001
f 6/1/1 8/2/1 7/3/1
f 6/1/1 9/4/1 8/2/1
f 9/4/1 11/5/1 10/6/1
f 9/4/1 12/7/1 11/5/1
f 6/1/1 12/7/1 9/4/1
f 5/8/1 12/7/1 6/1/1
f 5/8/1 3/9/1 12/7/1
f 3/9/1 1/10/1 12/7/1
f 5/8/1 4/11/1 3/9/1
f 2/12/1 1/10/1 3/9/1
f 17/13/1 19/14/1 18/15/1
f 17/13/1 22/16/1 19/14/1
f 22/16/1 20/17/1 19/14/1
f 17/13/1 23/7/1 22/16/1
f 21/18/1 20/17/1 22/16/1
f 17/13/1 15/19/1 23/7/1
f 15/19/1 21/18/1 23/7/1
f 15/19/1 14/20/1 21/18/1
f 14/20/1 20/17/1 21/18/1
f 17/13/1 16/21/1 15/19/1
f 13/10/1 20/17/1 14/20/1
f 32/22/1 34/23/1 33/24/1
f 32/22/1 30/25/1 34/23/1
f 30/25/1 29/26/1 34/23/1
f 29/26/1 35/27/1 34/23/1
f 35/27/1 37/28/1 36/29/1
f 35/27/1 26/30/1 37/28/1
f 26/30/1 25/31/1 37/28/1
f 25/31/1 38/7/1 37/28/1
f 32/22/1 31/15/1 30/25/1
f 28/32/1 35/27/1 29/26/1
f 35/27/1 27/33/1 26/30/1
f 24/10/1 38/7/1 25/31/1
f 28/32/1 27/33/1 35/27/1
f 41/13/1 43/18/1 42/14/1
f 41/13/1 44/7/1 43/18/1
f 41/13/1 39/10/1 44/7/1
f 41/13/1 40/19/1 39/10/1
f 53/4/1 45/10/1 54/6/1
f 45/10/1 55/5/1 54/6/1
f 45/10/1 56/7/1 55/5/1
f 53/4/1 46/12/1 45/10/1
f 53/4/1 49/8/1 46/12/1
f 49/8/1 47/9/1 46/12/1
f 49/8/1 48/11/1 47/9/1
f 53/4/1 50/1/1 49/8/1
f 53/4/1 51/3/1 50/1/1
f 53/4/1 52/2/1 51/3/1
f 57/10/1 59/34/1 58/35/1
f 57/10/1 60/15/1 59/34/1
f 60/15/1 62/36/1 61/37/1
f 60/15/1 63/7/1 62/36/1
f 57/10/1 63/7/1 60/15/1
f 72/4/1 64/10/1 73/6/1
f 64/10/1 74/5/1 73/6/1
f 64/10/1 75/7/1 74/5/1
f 72/4/1 65/12/1 64/10/1
f 72/4/1 68/8/1 65/12/1
f 68/8/1 66/9/1 65/12/1
f 68/8/1 67/11/1 66/9/1
f 72/4/1 69/1/1 68/8/1
f 72/4/1 70/3/1 69/1/1
f 72/4/1 71/2/1 70/3/1
f 78/13/1 80/18/1 79/14/1
f 78/13/1 81/7/1 80/18/1
f 78/13/1 76/10/1 81/7/1
f 78/13/1 77/19/1 76/10/1
f 87/1/2 88/3/2 89/2/2
f 87/1/2 89/2/2 90/4/2
f 90/4/2 91/6/2 92/5/2
f 90/4/2 92/5/2 93/7/2
f 87/1/2 90/4/2 93/7/2
f 86/8/2 87/1/2 93/7/2
f 86/8/2 93/7/2 84/9/2
f 84/9/2 93/7/2 82/10/2
f 86/8/2 84/9/2 85/11/2
f 83/12/2 84/9/2 82/10/2
f 98/13/2 99/15/2 100/14/2
f 98/13/2 100/14/2 103/16/2
f 103/16/2 100/14/2 101/17/2
f 98/13/2 103/16/2 104/7/2
f 102/18/2 103/16/2 101/17/2
f 98/13/2 104/7/2 96/19/2
f 96/19/2 104/7/2 102/18/2
f 96/19/2 102/18/2 95/20/2
f 95/20/2 102/18/2 101/17/2
f 98/13/2 96/19/2 97/21/2
f 94/10/2 95/20/2 101/17/2
f 113/22/2 114/24/2 115/23/2
f 113/22/2 115/23/2 111/25/2
f 111/25/2 115/23/2 110/26/2
f 110/26/2 115/23/2 116/27/2
f 116/27/2 117/29/2 118/28/2
f 116/27/2 118/28/2 107/30/2
f 107/30/2 118/28/2 106/31/2
f 106/31/2 118/28/2 119/7/2
f 113/22/2 111/25/2 112/15/2
f 109/32/2 110/26/2 116/27/2
f 116/27/2 107/30/2 108/33/2
f 105/10/2 106/31/2 119/7/2
f 109/32/2 116/27/2 108/33/2
f 122/13/2 123/14/2 124/18/2
f 122/13/2 124/18/2 125/7/2
f 122/13/2 125/7/2 120/10/2
f 122/13/2 120/10/2 121/19/2
f 134/4/2 135/6/2 126/10/2
f 126/10/2 135/6/2 136/5/2
f 126/10/2 136/5/2 137/7/2
f 134/4/2 126/10/2 127/12/2
f 134/4/2 127/12/2 130/8/2
f 130/8/2 127/12/2 128/9/2
f 130/8/2 128/9/2 129/11/2
f 134/4/2 130/8/2 131/1/2
f 134/4/2 131/1/2 132/3/2
f 134/4/2 132/3/2 133/2/2
f 138/10/2 139/35/2 140/34/2
f 138/10/2 140/34/2 141/15/2
f 141/15/2 142/37/2 143/36/2
f 141/15/2 143/36/2 144/7/2
f 138/10/2 141/15/2 144/7/2
f 153/4/2 154/6/2 145/10/2
f 145/10/2 154/6/2 155/5/2
f 145/10/2 155/5/2 156/7/2
f 153/4/2 145/10/2 146/12/2
f 153/4/2 146/12/2 149/8/2
f 149/8/2 146/12/2 147/9/2
f 149/8/2 147/9/2 148/11/2
f 153/4/2 149/8/2 150/1/2
f 153/4/2 150/1/2 151/3/2
f 153/4/2 151/3/2 152/2/2
f 159/13/2 160/14/2 161/18/2
f 159/13/2 161/18/2 162/7/2
f 159/13/2 162/7/2 157/10/2
f 159/13/2 157/10/2 158/19/2
s 1
f 166/38/3 163/10/4 164/39/4
f 168/40/5 165/35/3 166/38/3
f 170/41/6 167/34/5 168/40/5
f 172/42/4 169/15/6 170/41/6
f 174/43/4 171/37/4 172/42/4
f 164/44/4 173/36/4 174/43/4
f 178/45/4 175/10/3 176/39/3
f 180/38/4 177/46/4 178/45/4
f 182/47/3 179/35/4 180/38/4
f 184/40/3 181/48/3 182/47/3
f 186/49/4 183/34/3 184/40/3
f 188/41/4 185/50/4 186/49/4
f 190/51/3 187/15/4 188/41/4
f 192/42/5 189/52/3 190/51/3
f 194/53/6 191/37/5 192/42/5
f 196/43/4 193/54/6 194/53/6
f 198/55/3 195/36/4 196/43/4
f 176/44/3 197/56/3 198/55/3
f 202/57/7 199/10/8 200/39/8
f 204/58/9 201/30/7 202/57/7
f 206/59/10 203/32/9 204/58/9
f 208/60/11 205/25/10 206/59/10
f 210/61/12 207/22/11 208/60/11
f 212/62/13 209/23/12 210/61/12
f 200/44/8 211/29/13 212/62/13
f 216/45/4 213/10/3 214/39/3
f 218/38/4 215/46/4 216/45/4
f 220/47/3 217/35/4 218/38/4
f 222/40/3 219/48/3 220/47/3
f 224/49/4 221/34/3 222/40/3
f 226/41/4 223/50/4 224/49/4
f 228/51/3 225/15/4 226/41/4
f 230/42/5 227/52/3 228/51/3
f 232/53/6 229/37/5 230/42/5
f 234/43/4 231/54/6 232/53/6
f 236/55/3 233/36/4 234/43/4
f 214/44/3 235/56/3 236/55/3
f 240/38/3 237/10/4 238/39/4
f 242/40/5 239/35/3 240/38/3
f 244/41/6 241/34/5 242/40/5
f 246/42/4 243/15/6 244/41/6
f 248/43/4 245/37/4 246/42/4
f 238/44/4 247/36/4 248/43/4
f 252/63/5 249/10/5 250/39/5
f 254/64/14 251/65/5 252/63/5
f 256/66/14 253/67/14 254/64/14
f 258/68/15 255/19/14 256/66/14
f 260/40/15 257/69/15 258/68/15
f 262/70/3 259/34/15 260/40/15
f 264/71/3 261/13/3 262/70/3
f 266/72/5 263/73/3 264/71/3
f 268/74/6 265/75/5 266/72/5
f 270/42/16 267/14/6 268/74/6
f 272/76/17 269/37/16 270/42/16
f 274/77/18 271/78/17 272/76/17
f 276/79/4 273/18/18 274/77/18
f 278/80/3 275/81/4 276/79/4
f 250/44/5 277/82/3 278/80/3
f 282/83/19 279/10/19 280/39/19
f 284/47/20 281/84/19 282/83/19
f 286/85/20 283/48/20 284/47/20
f 288/41/21 285/86/20 286/85/20
f 290/87/22 287/15/21 288/41/21
f 292/53/23 289/88/22 290/87/22
f 294/89/24 291/54/23 292/53/23
f 280/44/19 293/90/24 294/89/24
f 298/40/25 295/10/26 296/39/26
f 300/42/27 297/34/25 298/40/25
f 296/44/26 299/37/27 300/42/27
f 304/45/28 301/10/29 302/39/29
f 306/38/30 303/46/28 304/45/28
f 308/47/31 305/35/30 306/38/30
f 310/40/32 307/48/31 308/47/31
f 312/49/33 309/34/32 310/40/32
f 314/41/34 311/50/33 312/49/33
f 316/51/35 313/15/34 314/41/34
f 318/42/36 315/52/35 316/51/35
f 320/53/37 317/37/36 318/42/36
f 322/43/38 319/54/37 320/53/37
f 324/55/39 321/36/38 322/43/38
f 302/44/29 323/56/39 324/55/39
f 166/38/3 165/35/3 163/10/4
f 168/40/5 167/34/5 165/35/3
f 170/41/6 169/15/6 167/34/5
f 172/42/4 171/37/4 169/15/6
f 174/43/4 173/36/4 171/37/4
f 164/44/4 163/7/4 173/36/4
f 178/45/4 177/46/4 175/10/3
f 180/38/4 179/35/4 177/46/4
f 182/47/3 181/48/3 179/35/4
f 184/40/3 183/34/3 181/48/3
f 186/49/4 185/50/4 183/34/3
f 188/41/4 187/15/4 185/50/4
f 190/51/3 189/52/3 187/15/4
f 192/42/5 191/37/5 189/52/3
f 194/53/6 193/54/6 191/37/5
f 196/43/4 195/36/4 193/54/6
f 198/55/3 197/56/3 195/36/4
f 176/44/3 175/7/3 197/56/3
f 202/57/7 201/30/7 199/10/8
f 204/58/9 203/32/9 201/30/7
f 206/59/10 205/25/10 203/32/9
f 208/60/11 207/22/11 205/25/10
f 210/61/12 209/23/12 207/22/11
f 212/62/13 211/29/13 209/23/12
f 200/44/8 199/7/8 211/29/13
f 216/45/4 215/46/4 213/10/3
f 218/38/4 217/35/4 215/46/4
f 220/47/3 219/48/3 217/35/4
f 222/40/3 221/34/3 219/48/3
f 224/49/4 223/50/4 221/34/3
f 226/41/4 225/15/4 223/50/4
f 228/51/3 227/52/3 225/15/4
f 230/42/5 229/37/5 227/52/3
f 232/53/6 231/54/6 229/37/5
f 234/43/4 233/36/4 231/54/6
f 236/55/3 235/56/3 233/36/4
f 214/44/3 213/7/3 235/56/3
f 240/38/3 239/35/3 237/10/4
f 242/40/5 241/34/5 239/35/3
f 244/41/6 243/15/6 241/34/5
f 246/42/4 245/37/4 243/15/6
f 248/43/4 247/36/4 245/37/4
f 238/44/4 237/7/4 247/36/4
f 252/63/5 251/65/5 249/10/5
f 254/64/14 253/67/14 251/65/5
f 256/66/14 255/19/14 253/67/14
f 258/68/15 257/69/15 255/19/14
f 260/40/15 259/34/15 257/69/15
f 262/70/3 261/13/3 259/34/15
f 264/71/3 263/73/3 261/13/3
f 266/72/5 265/75/5 263/73/3
f 268/74/6 267/14/6 265/75/5
f 270/42/16 269/37/16 267/14/6
f 272/76/17 271/78/17 269/37/16
f 274/77/18 273/18/18 271/78/17
f 276/79/4 275/81/4 273/18/18
f 278/80/3 277/82/3 275/81/4
f 250/44/5 249/7/5 277/82/3
f 282/83/19 281/84/19 279/10/19
f 284/47/20 283/48/20 281/84/19
f 286/85/20 285/86/20 283/48/20
f 288/41/21 287/15/21 285/86/20
f 290/87/22 289/88/22 287/15/21
f 292/53/23 291/54/23 289/88/22
f 294/89/24 293/90/24 291/54/23
f 280/44/19 279/7/19 293/90/24
f 298/40/25 297/34/25 295/10/26
f 300/42/27 299/37/27 297/34/25
f 296/44/26 295/7/26 299/37/27
f 304/45/28 303/46/28 301/10/29
f 306/38/30 305/35/30 303/46/28
f 308/47/31 307/48/31 305/35/30
f 310/40/32 309/34/32 307/48/31
f 312/49/33 311/50/33 309/34/32
f 314/41/34 313/15/34 311/50/33
f 316/51/35 315/52/35 313/15/34
f 318/42/36 317/37/36 315/52/35
f 320/53/37 319/54/37 317/37/36
f 322/43/38 321/36/38 319/54/37
f 324/55/39 323/56/39 321/36/38
f 302/44/29 301/7/29 323/56/39
