# Blender 3.5.0
# www.blender.org
mtllib body.mtl
o 体
v -0.004485 1.849817 0.294653
v -0.004485 2.540108 0.113740
v -0.004485 1.871509 -0.194790
v -0.004485 2.550177 -0.119712
v -0.004485 2.169201 -0.225159
v -0.004485 2.169201 0.323286
v -0.004485 2.550177 -0.034234
v -0.004485 2.550177 0.042622
v -0.004485 2.550177 -0.088048
v -0.004485 2.009509 0.323286
v -0.004485 2.009509 -0.225159
v -0.004485 2.328893 -0.225159
v -0.004485 2.328893 0.266019
v 0.279933 1.871509 -0.194790
v 0.330656 2.488585 -0.119712
v 0.279933 1.849817 0.294653
v 0.310537 2.478774 0.125004
v 0.244306 2.169201 -0.225159
v 0.244306 2.169201 0.323286
v 0.279933 1.849817 -0.034234
v 0.330656 2.488585 -0.034234
v 0.244306 2.169201 -0.034234
v 0.330656 2.488585 0.076645
v 0.244306 2.169201 0.087009
v 0.279933 1.849817 0.087009
v 0.279933 1.849817 -0.088048
v 0.330656 2.488585 -0.088048
v 0.244306 2.169201 -0.088048
v 0.163085 1.849817 0.294653
v 0.163085 2.550177 -0.119712
v 0.097870 2.169201 -0.225159
v 0.163085 2.540108 0.113740
v 0.163085 1.871509 -0.194790
v 0.097870 2.169201 0.323286
v 0.163085 2.550177 -0.034234
v 0.163085 2.550177 0.076645
v 0.163085 2.550177 -0.088048
v 0.244306 2.009509 0.323286
v 0.244306 2.009509 -0.225159
v 0.244306 2.009509 -0.034234
v 0.244306 2.009509 0.087009
v 0.244306 2.009509 -0.088048
v 0.097870 2.009509 0.323286
v 0.097870 2.009509 -0.225159
v 0.265441 2.328893 -0.225159
v 0.265441 2.328893 0.266019
v 0.265441 2.328893 -0.034234
v 0.265441 2.328893 0.087009
v 0.265441 2.328893 -0.088048
v 0.097870 2.328893 0.266019
v 0.097870 2.328893 -0.225159
v -0.004485 1.504386 0.374232
v -0.004485 1.542040 -0.256234
v -0.004485 1.553627 -0.049113
v -0.004485 1.553627 0.038107
v -0.004485 1.553627 -0.102927
v 0.374132 1.575319 -0.256234
v 0.374132 1.553627 0.374232
v 0.374132 1.553627 -0.049113
v 0.374132 1.553627 0.072130
v 0.374132 1.553627 -0.102927
v 0.257285 1.553627 0.374232
v 0.257285 1.575319 -0.256234
v 0.348771 1.723414 -0.202230
v 0.348771 1.701722 0.079569
v 0.348771 1.701722 -0.095487
v 0.348771 1.701722 -0.041673
v -0.004485 1.701722 0.323197
v 0.348771 1.701722 0.323197
v 0.231923 1.701722 0.323197
v -0.004485 1.723414 -0.202230
v 0.231923 1.723414 -0.202230
v 0.079300 2.540108 0.113740
v 0.079300 1.871509 -0.194790
v 0.046693 2.169201 0.323286
v 0.079300 2.550177 -0.034234
v 0.079300 2.550177 0.059634
v 0.079300 2.550177 -0.088048
v 0.079300 1.849817 0.294653
v 0.079300 2.550177 -0.119712
v 0.046693 2.169201 -0.225159
v 0.046693 2.009509 -0.225159
v 0.046693 2.009509 0.323286
v 0.046693 2.328893 -0.225159
v 0.046693 2.328893 0.266019
v 0.041139 1.542040 -0.256234
v 0.041139 1.504386 0.374232
v 0.041139 1.553627 -0.049113
v 0.041139 1.553627 0.038107
v 0.041139 1.553627 -0.102927
v 0.113719 1.723414 -0.202230
v 0.113719 1.701722 0.323197
v -0.288903 1.871509 -0.194790
v -0.339626 2.488585 -0.119712
v -0.288903 1.849817 0.294653
v -0.319507 2.478774 0.125004
v -0.253276 2.169201 -0.225159
v -0.253276 2.169201 0.323286
v -0.288903 1.849817 -0.034234
v -0.339626 2.488585 -0.034234
v -0.253276 2.169201 -0.034234
v -0.339626 2.488585 0.076645
v -0.253276 2.169201 0.087009
v -0.288903 1.849817 0.087009
v -0.288903 1.849817 -0.088048
v -0.339626 2.488585 -0.088048
v -0.253276 2.169201 -0.088048
v -0.172055 1.849817 0.294653
v -0.172055 2.550177 -0.119712
v -0.106841 2.169201 -0.225159
v -0.172055 2.540108 0.113740
v -0.172055 1.871509 -0.194790
v -0.106841 2.169201 0.323286
v -0.172055 2.550177 -0.034234
v -0.172055 2.550177 0.076645
v -0.172055 2.550177 -0.088048
v -0.253276 2.009509 0.323286
v -0.253276 2.009509 -0.225159
v -0.253276 2.009509 -0.034234
v -0.253276 2.009509 0.087009
v -0.253276 2.009509 -0.088048
v -0.106841 2.009509 0.323286
v -0.106841 2.009509 -0.225159
v -0.274411 2.328893 -0.225159
v -0.274411 2.328893 0.266019
v -0.274411 2.328893 -0.034234
v -0.274411 2.328893 0.087009
v -0.274411 2.328893 -0.088048
v -0.106841 2.328893 0.266019
v -0.106841 2.328893 -0.225159
v -0.383102 1.575319 -0.256234
v -0.383102 1.553627 0.374232
v -0.383102 1.553627 -0.049113
v -0.383102 1.553627 0.072130
v -0.383102 1.553627 -0.102927
v -0.266255 1.553627 0.374232
v -0.266255 1.575319 -0.256234
v -0.357741 1.723414 -0.202230
v -0.357741 1.701722 0.079569
v -0.357741 1.701722 -0.095487
v -0.357741 1.701722 -0.041673
v -0.357741 1.701722 0.323197
v -0.240893 1.701722 0.323197
v -0.240893 1.723414 -0.202230
v -0.088270 2.540108 0.113740
v -0.088270 1.871509 -0.194790
v -0.055663 2.169201 0.323286
v -0.088270 2.550177 -0.034234
v -0.088270 2.550177 0.059634
v -0.088270 2.550177 -0.088048
v -0.088270 1.849817 0.294653
v -0.088270 2.550177 -0.119712
v -0.055663 2.169201 -0.225159
v -0.055663 2.009509 -0.225159
v -0.055663 2.009509 0.323286
v -0.055663 2.328893 -0.225159
v -0.055663 2.328893 0.266019
v -0.050109 1.542040 -0.256234
v -0.050109 1.504386 0.374232
v -0.050109 1.553627 -0.049113
v -0.050109 1.553627 0.038107
v -0.050109 1.553627 -0.102927
v -0.122689 1.723414 -0.202230
v -0.122689 1.701722 0.323197
vn -0.0000 0.3426 -0.9395
vn 0.9867 0.1607 0.0227
vn 0.9857 0.1688 -0.0000
vn 0.9576 -0.2881 -0.0000
vn -0.0000 0.4302 -0.9027
vn 0.3450 0.9386 -0.0000
vn -0.0000 -0.0000 -1.0000
vn 1.0000 -0.0000 -0.0000
vn -0.0000 -0.0000 1.0000
vn -0.0000 0.5848 0.8112
vn 0.3564 0.9017 0.2447
vn 0.9258 -0.3781 -0.0000
vn -0.0000 1.0000 -0.0000
vn -0.0000 0.2504 0.9681
vn -0.0371 0.9824 0.1828
vn -0.0000 0.3258 0.9454
vn -0.0465 0.3021 -0.9521
vn -0.0000 -0.2149 -0.9766
vn -0.0000 -0.1765 0.9843
vn 0.9751 0.2175 0.0442
vn 0.9760 0.2177 -0.0000
vn -0.0000 0.3376 0.9413
vn 0.9914 -0.1312 -0.0000
vn -0.0000 -0.9972 0.0754
vn -0.0000 -1.0000 -0.0000
vn -0.0000 -0.9894 -0.1450
vn -0.0000 0.0502 -0.9987
vn -0.0000 0.1893 0.9819
vn 0.9068 0.4215 -0.0000
vn 0.9052 0.4165 0.0846
vn -0.0000 0.2854 -0.9584
vn -0.0284 0.9897 0.1401
vn -0.9854 0.1670 0.0339
vn -0.9857 0.1688 -0.0000
vn -0.8897 -0.3438 0.3004
vn -0.3450 0.9386 -0.0000
vn -1.0000 -0.0000 -0.0000
vn -0.3564 0.9017 0.2447
vn -0.9258 -0.3781 -0.0000
vn -0.0000 0.9651 0.2619
vn -0.2079 0.6363 0.7428
vn -0.9683 0.2500 -0.0000
vn -0.9760 0.2177 -0.0000
vn -0.9914 -0.1312 -0.0000
vn -0.9068 0.4215 -0.0000
vn -0.9052 0.4165 0.0846
vn -0.0000 0.9831 0.1829
vn 0.9854 0.1670 0.0339
vn 0.8897 -0.3438 0.3004
vn 0.1800 0.4898 -0.8531
vn 0.3272 0.8903 0.3168
vn 0.2079 0.6363 0.7428
vn 0.9683 0.2500 -0.0000
vn -0.0618 0.2711 0.9606
vn -0.9867 0.1607 0.0227
vn -0.9576 -0.2881 -0.0000
vn -0.1800 0.4898 -0.8531
vn -0.3272 0.8903 0.3168
vn 0.0371 0.9824 0.1828
vn 0.0465 0.3021 -0.9521
vn -0.9751 0.2175 0.0442
vn 0.0284 0.9897 0.1401
vn 0.0618 0.2711 0.9606
vn -0.0000 -0.9901 -0.1401
vn 0.2199 -0.9652 -0.1414
vn 0.1474 -0.9575 -0.2478
vn -0.1518 -0.9856 0.0745
vn -0.0999 -0.9950 -0.0000
vn 0.1825 -0.9832 -0.0000
vn -0.2199 -0.9652 -0.1414
vn -0.0000 -0.9946 -0.1042
vt 0.375000 0.375000
vt 0.625000 0.375000
vt 0.750000 0.500000
vt 0.375000 0.875000
vt 0.625000 0.875000
vt 0.750000 0.750000
vt 0.500000 0.875000
vt 0.500000 0.375000
vt 0.750000 0.625000
vt 0.750000 0.562500
vt 0.750000 0.687500
vt 0.437500 0.375000
vt 0.437500 0.875000
vt 0.562500 0.875000
vt 0.562500 0.375000
vt 0.375000 0.000000
vt 0.375000 1.000000
vt 0.625000 1.000000
vt 0.875000 0.750000
vt 0.625000 0.000000
vt 0.375000 0.250000
vt 0.875000 0.500000
vt 0.625000 0.250000
vt 0.500000 0.000000
vt 0.500000 1.000000
vt 0.500000 0.250000
vt 0.375000 0.125000
vt 0.875000 0.625000
vt 0.500000 0.125000
vt 0.625000 0.187500
vt 0.875000 0.562500
vt 0.500000 0.187500
vt 0.375000 0.187500
vt 0.375000 0.062500
vt 0.875000 0.687500
vt 0.625000 0.062500
vt 0.500000 0.062500
vt 0.375000 0.312500
vt 0.812500 0.750000
vt 0.625000 0.937500
vt 0.500000 0.937500
vt 0.812500 0.500000
vt 0.625000 0.312500
vt 0.375000 0.937500
vt 0.500000 0.312500
vt 0.812500 0.625000
vt 0.812500 0.562500
vt 0.812500 0.687500
vt 0.437500 0.250000
vt 0.437500 0.000000
vt 0.437500 1.000000
vt 0.437500 0.125000
vt 0.437500 0.187500
vt 0.437500 0.062500
vt 0.437500 0.312500
vt 0.437500 0.937500
vt 0.562500 0.000000
vt 0.562500 1.000000
vt 0.562500 0.250000
vt 0.562500 0.125000
vt 0.562500 0.187500
vt 0.562500 0.062500
vt 0.562500 0.312500
vt 0.562500 0.937500
vt 0.375000 0.375000
vt 0.250000 0.500000
vt 0.250000 0.750000
vt 0.375000 0.875000
vt 0.250000 0.625000
vt 0.250000 0.562500
vt 0.250000 0.687500
vt 0.375000 0.000000
vt 0.375000 1.000000
vt 0.375000 0.250000
vt 0.375000 0.125000
vt 0.375000 0.187500
vt 0.375000 0.062500
vt 0.375000 0.312500
vt 0.375000 0.937500
vt 0.375000 0.000000
vt 0.375000 1.000000
vt 0.375000 0.187500
vt 0.375000 0.062500
vt 0.375000 0.125000
vt 0.375000 0.375000
vt 0.375000 0.250000
vt 0.375000 0.312500
vt 0.375000 0.875000
vt 0.375000 0.937500
vt 0.781250 0.500000
vt 0.625000 0.343750
vt 0.375000 0.906250
vt 0.500000 0.343750
vt 0.781250 0.625000
vt 0.781250 0.562500
vt 0.781250 0.687500
vt 0.375000 0.343750
vt 0.625000 0.906250
vt 0.781250 0.750000
vt 0.500000 0.906250
vt 0.437500 0.906250
vt 0.437500 0.343750
vt 0.562500 0.906250
vt 0.562500 0.343750
vt 0.218750 0.750000
vt 0.375000 0.906250
vt 0.375000 0.343750
vt 0.218750 0.500000
vt 0.218750 0.625000
vt 0.218750 0.562500
vt 0.218750 0.687500
vt 0.375000 0.906250
vt 0.375000 0.343750
vt 0.375000 0.000000
vt 0.375000 1.000000
vt 0.625000 1.000000
vt 0.875000 0.750000
vt 0.625000 0.000000
vt 0.375000 0.250000
vt 0.625000 0.250000
vt 0.875000 0.500000
vt 0.500000 0.000000
vt 0.500000 1.000000
vt 0.500000 0.250000
vt 0.375000 0.125000
vt 0.875000 0.625000
vt 0.500000 0.125000
vt 0.625000 0.187500
vt 0.875000 0.562500
vt 0.500000 0.187500
vt 0.375000 0.187500
vt 0.375000 0.062500
vt 0.875000 0.687500
vt 0.625000 0.062500
vt 0.500000 0.062500
vt 0.375000 0.312500
vt 0.812500 0.750000
vt 0.625000 0.937500
vt 0.500000 0.937500
vt 0.812500 0.500000
vt 0.625000 0.312500
vt 0.375000 0.937500
vt 0.500000 0.312500
vt 0.812500 0.625000
vt 0.812500 0.562500
vt 0.812500 0.687500
vt 0.437500 0.250000
vt 0.437500 0.000000
vt 0.437500 1.000000
vt 0.437500 0.125000
vt 0.437500 0.187500
vt 0.437500 0.062500
vt 0.437500 0.312500
vt 0.437500 0.937500
vt 0.562500 0.000000
vt 0.562500 1.000000
vt 0.562500 0.250000
vt 0.562500 0.125000
vt 0.562500 0.187500
vt 0.562500 0.062500
vt 0.562500 0.312500
vt 0.562500 0.937500
vt 0.375000 0.000000
vt 0.375000 1.000000
vt 0.375000 0.250000
vt 0.375000 0.125000
vt 0.375000 0.187500
vt 0.375000 0.062500
vt 0.375000 0.312500
vt 0.375000 0.937500
vt 0.375000 0.000000
vt 0.375000 1.000000
vt 0.375000 0.187500
vt 0.375000 0.062500
vt 0.375000 0.125000
vt 0.375000 0.250000
vt 0.375000 0.312500
vt 0.375000 0.937500
vt 0.781250 0.500000
vt 0.625000 0.343750
vt 0.375000 0.906250
vt 0.500000 0.343750
vt 0.781250 0.625000
vt 0.781250 0.562500
vt 0.781250 0.687500
vt 0.375000 0.343750
vt 0.625000 0.906250
vt 0.781250 0.750000
vt 0.500000 0.906250
vt 0.437500 0.906250
vt 0.437500 0.343750
vt 0.562500 0.906250
vt 0.562500 0.343750
vt 0.218750 0.750000
vt 0.375000 0.906250
vt 0.375000 0.343750
vt 0.218750 0.500000
vt 0.218750 0.625000
vt 0.218750 0.562500
vt 0.218750 0.687500
vt 0.375000 0.906250
vt 0.375000 0.343750
s 0
f 64/81/1 63/79/1 72/89/1
f 64/80/2 61/77/2 57/72/2
f 69/86/3 60/76/3 65/82/3
f 48/61/4 17/23/4 46/59/4
f 30/40/5 45/58/5 51/64/5
f 27/35/6 30/39/6 37/48/6
f 31/41/7 39/51/7 44/56/7
f 24/32/8 38/49/8 41/53/8
f 75/93/9 10/12/9 83/102/9
f 67/84/3 60/76/3 59/75/3
f 85/104/10 2/2/10 13/15/10
f 28/37/8 40/52/8 42/54/8
f 23/31/6 35/46/6 36/47/6
f 17/22/11 36/47/11 32/42/11
f 66/83/3 59/75/3 61/77/3
f 22/29/8 41/53/8 40/52/8
f 15/20/12 49/62/12 45/57/12
f 18/24/8 42/54/8 39/50/8
f 21/28/6 37/48/6 35/46/6
f 35/46/13 78/96/13 76/94/13
f 68/85/14 87/107/14 92/113/14
f 73/90/15 36/47/15 77/95/15
f 77/95/13 35/46/13 76/94/13
f 69/86/16 62/78/16 58/74/16
f 46/59/10 32/43/10 50/63/10
f 91/112/17 63/79/17 86/106/17
f 19/26/9 43/55/9 38/49/9
f 81/100/7 44/56/7 82/101/7
f 37/48/13 80/99/13 78/96/13
f 80/98/5 51/64/5 84/103/5
f 74/92/18 44/56/18 33/44/18
f 38/49/19 29/38/19 16/21/19
f 14/16/20 42/54/20 26/34/20
f 40/52/21 25/33/21 20/27/21
f 42/54/21 20/27/21 26/34/21
f 83/102/19 1/1/19 79/97/19
f 41/53/21 16/21/21 25/33/21
f 33/44/18 39/51/18 14/17/18
f 84/103/7 31/41/7 81/100/7
f 19/26/22 50/63/22 34/45/22
f 45/57/23 28/37/23 18/24/23
f 47/60/23 24/32/23 22/29/23
f 49/62/23 22/29/23 28/37/23
f 85/104/22 6/8/22 75/93/22
f 51/64/7 18/25/7 31/41/7
f 24/32/23 46/59/23 19/26/23
f 56/71/24 86/105/24 90/111/24
f 55/70/25 88/109/25 89/110/25
f 52/66/26 89/110/26 87/108/26
f 54/69/25 90/111/25 88/109/25
f 33/44/27 91/112/27 74/92/27
f 16/21/28 70/87/28 69/86/28
f 79/97/28 68/85/28 92/113/28
f 26/34/29 67/84/29 66/83/29
f 20/27/29 65/82/29 67/84/29
f 16/21/29 65/82/29 25/33/29
f 26/34/30 64/80/30 14/16/30
f 14/17/27 72/89/27 33/44/27
f 29/38/28 92/113/28 70/87/28
f 74/92/27 71/88/27 3/4/27
f 50/63/22 75/93/22 34/45/22
f 12/14/7 81/100/7 5/7/7
f 43/55/19 79/97/19 29/38/19
f 3/4/18 82/101/18 74/92/18
f 4/5/5 84/103/5 12/14/5
f 78/96/13 4/6/13 9/11/13
f 5/7/7 82/101/7 11/13/7
f 71/88/31 86/106/31 53/68/31
f 8/10/13 76/94/13 7/9/13
f 2/3/32 77/95/32 8/10/32
f 92/113/16 62/78/16 70/87/16
f 76/94/13 9/11/13 7/9/13
f 50/63/10 73/91/10 85/104/10
f 34/45/9 83/102/9 43/55/9
f 137/170/1 138/172/1 144/178/1
f 138/171/33 135/168/33 140/174/33
f 134/167/34 142/176/34 139/173/34
f 127/159/35 96/120/35 102/128/35
f 124/156/5 109/138/5 130/162/5
f 109/137/36 106/133/36 116/146/36
f 118/149/7 110/139/7 123/154/7
f 117/147/37 103/130/37 120/151/37
f 10/12/9 147/182/9 155/191/9
f 141/175/34 134/167/34 139/173/34
f 157/193/10 2/2/10 145/180/10
f 119/150/37 107/135/37 121/152/37
f 114/144/36 102/129/36 115/145/36
f 115/145/38 96/121/38 111/140/38
f 140/174/34 133/166/34 141/175/34
f 120/151/37 101/127/37 119/150/37
f 128/160/39 94/118/39 124/155/39
f 121/152/37 97/122/37 118/148/37
f 116/146/36 100/126/36 114/144/36
f 150/185/13 114/144/13 148/183/13
f 159/196/14 68/85/14 164/202/14
f 145/179/40 115/145/40 111/140/40
f 149/184/13 114/144/13 115/145/13
f 142/176/16 136/169/16 143/177/16
f 125/157/41 111/141/41 96/120/41
f 163/201/1 137/170/1 144/178/1
f 122/153/9 98/124/9 117/147/9
f 123/154/7 153/189/7 154/190/7
f 152/188/13 116/146/13 150/185/13
f 130/162/5 152/187/5 156/192/5
f 146/181/18 123/154/18 154/190/18
f 108/136/19 117/147/19 95/119/19
f 93/114/42 121/152/42 118/148/42
f 104/131/43 119/150/43 99/125/43
f 99/125/43 121/152/43 105/132/43
f 1/1/19 155/191/19 151/186/19
f 95/119/43 120/151/43 104/131/43
f 112/142/18 118/149/18 123/154/18
f 110/139/7 156/192/7 153/189/7
f 98/124/22 129/161/22 125/157/22
f 107/135/44 124/155/44 97/122/44
f 103/130/44 126/158/44 101/127/44
f 101/127/44 128/160/44 107/135/44
f 6/8/22 157/193/22 147/182/22
f 97/123/7 130/162/7 110/139/7
f 103/130/44 125/157/44 127/159/44
f 158/194/24 56/71/24 162/200/24
f 160/198/25 55/70/25 161/199/25
f 161/199/26 52/66/26 159/197/26
f 162/200/25 54/69/25 160/198/25
f 163/201/27 112/142/27 146/181/27
f 95/119/28 143/177/28 108/136/28
f 151/186/28 68/85/28 1/1/28
f 105/132/45 141/175/45 99/125/45
f 99/125/45 139/173/45 104/131/45
f 139/173/45 95/119/45 104/131/45
f 138/171/46 105/132/46 93/114/46
f 144/178/27 93/115/27 112/142/27
f 108/136/28 164/202/28 151/186/28
f 71/88/27 146/181/27 3/4/27
f 147/182/22 129/161/22 113/143/22
f 153/189/7 12/14/7 5/7/7
f 151/186/19 122/153/19 108/136/19
f 3/4/18 154/190/18 11/13/18
f 156/192/5 4/5/5 12/14/5
f 4/6/13 150/185/13 9/11/13
f 154/190/7 5/7/7 11/13/7
f 71/88/31 158/195/31 163/201/31
f 8/10/13 148/183/13 149/184/13
f 2/3/47 149/184/47 145/179/47
f 136/169/16 164/202/16 143/177/16
f 9/11/13 148/183/13 7/9/13
f 129/161/10 145/180/10 111/141/10
f 155/191/9 113/143/9 122/153/9
f 61/77/25 62/78/25 90/111/25
f 160/198/25 136/169/25 133/166/25
f 100/126/39 126/158/39 102/129/39
f 21/28/12 47/60/12 27/36/12
f 64/81/1 57/73/1 63/79/1
f 64/80/48 66/83/48 61/77/48
f 69/86/3 58/74/3 60/76/3
f 48/61/49 23/30/49 17/23/49
f 30/40/50 15/18/50 45/58/50
f 27/35/6 15/19/6 30/39/6
f 31/41/7 18/25/7 39/51/7
f 24/32/8 19/26/8 38/49/8
f 75/93/9 6/8/9 10/12/9
f 67/84/3 65/82/3 60/76/3
f 85/104/10 73/91/10 2/2/10
f 28/37/8 22/29/8 40/52/8
f 23/31/6 21/28/6 35/46/6
f 17/22/51 23/31/51 36/47/51
f 66/83/3 67/84/3 59/75/3
f 22/29/8 24/32/8 41/53/8
f 15/20/12 27/36/12 49/62/12
f 18/24/8 28/37/8 42/54/8
f 21/28/6 27/35/6 37/48/6
f 35/46/13 37/48/13 78/96/13
f 68/85/14 52/65/14 87/107/14
f 73/90/40 32/42/40 36/47/40
f 77/95/13 36/47/13 35/46/13
f 69/86/16 70/87/16 62/78/16
f 46/59/52 17/23/52 32/43/52
f 91/112/1 72/89/1 63/79/1
f 19/26/9 34/45/9 43/55/9
f 81/100/7 31/41/7 44/56/7
f 37/48/13 30/39/13 80/99/13
f 80/98/5 30/40/5 51/64/5
f 74/92/18 82/101/18 44/56/18
f 38/49/19 43/55/19 29/38/19
f 14/16/53 39/50/53 42/54/53
f 40/52/21 41/53/21 25/33/21
f 42/54/21 40/52/21 20/27/21
f 83/102/19 10/12/19 1/1/19
f 41/53/21 38/49/21 16/21/21
f 33/44/18 44/56/18 39/51/18
f 84/103/7 51/64/7 31/41/7
f 19/26/22 46/59/22 50/63/22
f 45/57/23 49/62/23 28/37/23
f 47/60/23 48/61/23 24/32/23
f 49/62/23 47/60/23 22/29/23
f 85/104/22 13/15/22 6/8/22
f 51/64/7 45/58/7 18/25/7
f 24/32/23 48/61/23 46/59/23
f 56/71/24 53/67/24 86/105/24
f 55/70/25 54/69/25 88/109/25
f 52/66/26 55/70/26 89/110/26
f 54/69/25 56/71/25 90/111/25
f 33/44/27 72/89/27 91/112/27
f 16/21/28 29/38/28 70/87/28
f 79/97/28 1/1/28 68/85/28
f 26/34/29 20/27/29 67/84/29
f 20/27/29 25/33/29 65/82/29
f 16/21/29 69/86/29 65/82/29
f 26/34/30 66/83/30 64/80/30
f 14/17/27 64/81/27 72/89/27
f 29/38/28 79/97/28 92/113/28
f 74/92/27 91/112/27 71/88/27
f 50/63/22 85/104/22 75/93/22
f 12/14/7 84/103/7 81/100/7
f 43/55/19 83/102/19 79/97/19
f 3/4/18 11/13/18 82/101/18
f 4/5/5 80/98/5 84/103/5
f 78/96/13 80/99/13 4/6/13
f 5/7/7 81/100/7 82/101/7
f 71/88/31 91/112/31 86/106/31
f 8/10/13 77/95/13 76/94/13
f 2/3/47 73/90/47 77/95/47
f 92/113/54 87/107/54 62/78/54
f 76/94/13 78/96/13 9/11/13
f 50/63/10 32/43/10 73/91/10
f 34/45/9 75/93/9 83/102/9
f 137/170/1 131/164/1 138/172/1
f 138/171/55 131/163/55 135/168/55
f 134/167/34 132/165/34 142/176/34
f 127/159/56 125/157/56 96/120/56
f 124/156/57 94/116/57 109/138/57
f 109/137/36 94/117/36 106/133/36
f 118/149/7 97/123/7 110/139/7
f 117/147/37 98/124/37 103/130/37
f 10/12/9 6/8/9 147/182/9
f 141/175/34 133/166/34 134/167/34
f 157/193/10 13/15/10 2/2/10
f 119/150/37 101/127/37 107/135/37
f 114/144/36 100/126/36 102/129/36
f 115/145/58 102/129/58 96/121/58
f 140/174/34 135/168/34 133/166/34
f 120/151/37 103/130/37 101/127/37
f 128/160/39 106/134/39 94/118/39
f 121/152/37 107/135/37 97/122/37
f 116/146/36 106/133/36 100/126/36
f 150/185/13 116/146/13 114/144/13
f 159/196/14 52/65/14 68/85/14
f 145/179/59 149/184/59 115/145/59
f 149/184/13 148/183/13 114/144/13
f 142/176/16 132/165/16 136/169/16
f 125/157/10 129/161/10 111/141/10
f 163/201/60 158/195/60 137/170/60
f 122/153/9 113/143/9 98/124/9
f 123/154/7 110/139/7 153/189/7
f 152/188/13 109/137/13 116/146/13
f 130/162/5 109/138/5 152/187/5
f 146/181/18 112/142/18 123/154/18
f 108/136/19 122/153/19 117/147/19
f 93/114/61 105/132/61 121/152/61
f 104/131/43 120/151/43 119/150/43
f 99/125/43 119/150/43 121/152/43
f 1/1/19 10/12/19 155/191/19
f 95/119/43 117/147/43 120/151/43
f 112/142/18 93/115/18 118/149/18
f 110/139/7 130/162/7 156/192/7
f 98/124/22 113/143/22 129/161/22
f 107/135/44 128/160/44 124/155/44
f 103/130/44 127/159/44 126/158/44
f 101/127/44 126/158/44 128/160/44
f 6/8/22 13/15/22 157/193/22
f 97/123/7 124/156/7 130/162/7
f 103/130/44 98/124/44 125/157/44
f 158/194/24 53/67/24 56/71/24
f 160/198/25 54/69/25 55/70/25
f 161/199/26 55/70/26 52/66/26
f 162/200/25 56/71/25 54/69/25
f 163/201/27 144/178/27 112/142/27
f 95/119/28 142/176/28 143/177/28
f 151/186/28 164/202/28 68/85/28
f 105/132/45 140/174/45 141/175/45
f 99/125/45 141/175/45 139/173/45
f 139/173/45 142/176/45 95/119/45
f 138/171/46 140/174/46 105/132/46
f 144/178/27 138/172/27 93/115/27
f 108/136/28 143/177/28 164/202/28
f 71/88/27 163/201/27 146/181/27
f 147/182/22 157/193/22 129/161/22
f 153/189/7 156/192/7 12/14/7
f 151/186/19 155/191/19 122/153/19
f 3/4/18 146/181/18 154/190/18
f 156/192/5 152/187/5 4/5/5
f 4/6/13 152/188/13 150/185/13
f 154/190/7 153/189/7 5/7/7
f 71/88/31 53/68/31 158/195/31
f 8/10/13 7/9/13 148/183/13
f 2/3/62 8/10/62 149/184/62
f 136/169/63 159/196/63 164/202/63
f 9/11/13 150/185/13 148/183/13
f 129/161/10 157/193/10 145/180/10
f 155/191/9 147/182/9 113/143/9
f 63/79/64 57/73/64 61/77/64
f 61/77/13 59/75/13 60/76/13
f 60/76/25 58/74/25 62/78/25
f 62/78/65 87/108/65 89/110/65
f 62/78/25 89/110/25 88/109/25
f 61/77/25 60/76/25 62/78/25
f 86/106/66 63/79/66 61/77/66
f 62/78/25 88/109/25 90/111/25
f 90/111/24 86/106/24 61/77/24
f 135/168/64 131/164/64 137/170/64
f 137/170/67 158/195/67 162/200/67
f 137/170/68 162/200/68 160/198/68
f 133/166/69 135/168/69 137/170/69
f 132/165/8 134/167/8 133/166/8
f 161/199/70 159/197/70 136/169/70
f 136/169/25 132/165/25 133/166/25
f 133/166/71 137/170/71 160/198/71
f 160/198/25 161/199/25 136/169/25
f 100/126/39 106/134/39 128/160/39
f 126/158/39 127/159/39 102/129/39
f 100/126/39 128/160/39 126/158/39
f 21/28/12 23/31/12 48/61/12
f 47/60/12 49/62/12 27/36/12
f 21/28/12 48/61/12 47/60/12
