# Blender 3.5.0
# www.blender.org
mtllib head.mtl
o 頭
v -0.533659 3.006923 0.551953
v -0.533659 4.006923 0.551953
v -0.548881 3.006923 -0.447931
v -0.548880 4.006923 -0.447931
v 0.466226 3.006923 0.536732
v 0.466225 4.006923 0.536732
v 0.451004 3.006923 -0.463153
v 0.451004 4.006923 -0.463153
v -0.618710 2.933990 -0.243494
v -0.650825 2.897355 0.053679
v -0.609678 2.933990 0.349737
v -0.605473 3.210273 0.625988
v -0.641546 3.506923 0.663176
v -0.605473 3.803573 0.625988
v -0.609678 4.079856 0.349737
v -0.650825 4.116491 0.053679
v -0.618710 4.079856 -0.243494
v -0.622915 3.803573 -0.519745
v -0.660103 3.506923 -0.555818
v -0.622915 3.210273 -0.519745
v 0.246395 2.933990 -0.544262
v -0.050778 2.897355 -0.576377
v -0.346836 2.933990 -0.535231
v -0.346664 4.079856 -0.523951
v -0.050606 4.116491 -0.565097
v 0.246567 4.079856 -0.532982
v 0.522818 3.803573 -0.537187
v 0.558891 3.506923 -0.574376
v 0.522818 3.210273 -0.537187
v 0.536054 2.933990 0.332295
v 0.568170 2.897355 0.035122
v 0.527023 2.933990 -0.260936
v 0.527023 4.079856 -0.260936
v 0.568170 4.116491 0.035122
v 0.536054 4.079856 0.332295
v 0.540260 3.803573 0.608546
v 0.577449 3.506923 0.644619
v 0.540260 3.210273 0.608546
v -0.328588 2.896128 0.663426
v -0.031415 2.859493 0.695542
v 0.264643 2.896128 0.654395
v 0.264009 4.079856 0.612751
v -0.032049 4.116491 0.653898
v -0.329222 4.079856 0.621782
v -0.765420 3.190766 0.371617
v -0.817995 3.506923 0.389403
v -0.765420 3.823080 0.371617
v -0.823066 3.173782 0.056301
v -0.880736 3.506923 0.057179
v -0.823066 3.840064 0.056301
v -0.775045 3.190766 -0.260624
v -0.828137 3.506923 -0.276801
v -0.775045 3.823080 -0.260624
v -0.368545 3.190766 -0.679693
v -0.386330 3.506923 -0.732267
v -0.368545 3.823080 -0.679693
v -0.053228 3.173782 -0.737338
v -0.054106 3.506923 -0.795009
v -0.053228 3.840063 -0.737338
v 0.263696 3.190766 -0.689318
v 0.279874 3.506923 -0.742409
v 0.263696 3.823080 -0.689318
v 0.682765 3.190766 -0.282817
v 0.735340 3.506923 -0.300602
v 0.682766 3.823080 -0.282817
v 0.740411 3.173782 0.032499
v 0.798082 3.506923 0.031622
v 0.740411 3.840063 0.032499
v 0.692391 3.190766 0.349424
v 0.745482 3.506923 0.365601
v 0.692390 3.823080 0.349424
v 0.287106 3.217151 0.848378
v 0.302458 3.430863 0.741110
v 0.285890 3.823080 0.768493
v -0.028211 3.200167 0.906023
v -0.029766 3.430863 0.803852
v -0.029427 3.840063 0.826138
v -0.345135 3.217151 0.858003
v -0.363746 3.430863 0.751252
v -0.346351 3.823080 0.778118
v -0.362260 2.732807 -0.266908
v -0.046399 2.679968 -0.288702
v 0.269981 2.732807 -0.276533
v -0.374429 2.698979 0.049471
v -0.041327 2.641302 0.044400
v 0.291774 2.698979 0.039329
v -0.352520 2.698422 0.372905
v -0.036141 2.645583 0.385074
v 0.279721 2.698422 0.363280
v 0.269981 4.235913 -0.276533
v -0.046398 4.288752 -0.288702
v -0.362260 4.235913 -0.266908
v 0.291774 4.288752 0.039329
v -0.041327 4.346429 0.044400
v -0.374429 4.288752 0.049471
v 0.279605 4.235913 0.355708
v -0.036257 4.288752 0.377502
v -0.352636 4.235913 0.365333
vn -0.9681 -0.1681 0.1860
vn -0.9681 0.1713 0.1828
vn -0.9733 -0.1681 -0.1565
vn -0.9732 0.1713 -0.1533
vn -0.7432 -0.4896 0.4560
vn -0.8287 -0.1678 0.5339
vn -0.8286 0.1677 0.5341
vn -0.7425 0.4446 0.5010
vn -0.8341 0.5213 0.1806
vn -0.8392 0.5213 -0.1551
vn -0.7574 0.4446 -0.4782
vn -0.8445 0.1677 -0.5086
vn -0.8446 -0.1678 -0.5085
vn -0.7567 -0.4896 -0.4332
vn -0.8391 -0.5214 -0.1550
vn -0.8340 -0.5214 0.1804
vn -0.1860 -0.1681 -0.9681
vn -0.1828 0.1713 -0.9681
vn 0.1565 -0.1681 -0.9733
vn 0.1533 0.1713 -0.9732
vn -0.4868 -0.4592 -0.7431
vn -0.5340 -0.1678 -0.8287
vn -0.5341 0.1677 -0.8286
vn -0.5010 0.4446 -0.7425
vn -0.1806 0.5213 -0.8341
vn 0.1551 0.5213 -0.8392
vn 0.4782 0.4446 -0.7574
vn 0.5086 0.1677 -0.8445
vn 0.5085 -0.1678 -0.8446
vn 0.4640 -0.4592 -0.7575
vn 0.1535 -0.4962 -0.8545
vn -0.1795 -0.4962 -0.8494
vn 0.9681 -0.1681 -0.1860
vn 0.9681 0.1713 -0.1828
vn 0.9733 -0.1681 0.1565
vn 0.9732 0.1713 0.1533
vn 0.7432 -0.4896 -0.4560
vn 0.8287 -0.1678 -0.5339
vn 0.8286 0.1677 -0.5341
vn 0.7425 0.4446 -0.5010
vn 0.8341 0.5213 -0.1806
vn 0.8392 0.5213 0.1551
vn 0.7574 0.4446 0.4782
vn 0.8445 0.1677 0.5086
vn 0.8446 -0.1678 0.5085
vn 0.7567 -0.4896 0.4331
vn 0.8391 -0.5214 0.1550
vn 0.8340 -0.5214 -0.1804
vn 0.1437 0.4016 0.9045
vn 0.1852 -0.0607 0.9808
vn -0.1161 0.4015 0.9084
vn -0.1553 -0.0607 0.9860
vn 0.6203 -0.4370 0.6513
vn 0.6607 0.2983 0.6888
vn 0.3432 -0.0510 0.9379
vn 0.5010 0.4446 0.7425
vn 0.1806 0.5213 0.8341
vn -0.1551 0.5213 0.8392
vn -0.4782 0.4446 0.7574
vn -0.3145 -0.0510 0.9479
vn -0.6394 0.2983 0.7086
vn -0.6002 -0.4370 0.6699
vn -0.1548 -0.5182 0.8411
vn 0.1803 -0.5182 0.8360
vn -0.1712 -0.9789 -0.1113
vn 0.1680 -0.9789 -0.1162
vn -0.1705 -0.9853 0.0099
vn 0.1656 -0.9861 0.0099
vn -0.5783 -0.6857 -0.4421
vn -0.1723 -0.7833 -0.5972
vn 0.1614 -0.7862 -0.5966
vn 0.4659 -0.6872 -0.5574
vn 0.6162 -0.7775 -0.1258
vn 0.6780 -0.7346 0.0240
vn 0.6190 -0.6345 0.4630
vn 0.1778 -0.8116 0.5565
vn -0.1571 -0.8104 0.5644
vn -0.6214 -0.6329 0.4619
vn -0.5719 -0.8006 0.1786
vn -0.5771 -0.8006 -0.1611
vn 0.1654 0.9708 -0.1738
vn -0.1738 0.9708 -0.1654
vn 0.1707 0.9708 0.1687
vn -0.1687 0.9708 0.1707
vn 0.4828 0.7501 -0.4520
vn 0.1599 0.8367 -0.5238
vn -0.1756 0.8367 -0.5188
vn -0.4520 0.7501 -0.4828
vn -0.5238 0.8367 -0.1599
vn -0.5187 0.8367 0.1758
vn -0.4371 0.7501 0.4963
vn -0.1598 0.8367 0.5239
vn 0.1758 0.8367 0.5187
vn 0.4963 0.7501 0.4371
vn 0.5239 0.8367 0.1598
vn 0.5188 0.8367 -0.1756
vn -0.9681 -0.1713 0.1828
vn -0.9681 0.1681 0.1860
vn -0.9732 -0.1713 -0.1533
vn -0.9733 0.1681 -0.1565
vn -0.7425 -0.4446 0.5010
vn -0.8286 -0.1677 0.5341
vn -0.8287 0.1678 0.5339
vn -0.7432 0.4896 0.4560
vn -0.8340 0.5214 0.1804
vn -0.8391 0.5214 -0.1550
vn -0.7567 0.4896 -0.4332
vn -0.8446 0.1678 -0.5085
vn -0.8445 -0.1677 -0.5086
vn -0.7574 -0.4446 -0.4782
vn -0.8392 -0.5213 -0.1551
vn -0.8341 -0.5213 0.1806
vn -0.1828 -0.1713 -0.9681
vn -0.1860 0.1681 -0.9681
vn 0.1533 -0.1713 -0.9732
vn 0.1565 0.1681 -0.9733
vn -0.5010 -0.4446 -0.7425
vn -0.5341 -0.1677 -0.8286
vn -0.5340 0.1678 -0.8287
vn -0.4560 0.4896 -0.7432
vn -0.1804 0.5214 -0.8340
vn 0.1550 0.5214 -0.8391
vn 0.4332 0.4896 -0.7567
vn 0.5085 0.1678 -0.8446
vn 0.5086 -0.1677 -0.8445
vn 0.4782 -0.4446 -0.7574
vn 0.1561 -0.4938 -0.8555
vn -0.1820 -0.4938 -0.8503
vn 0.9681 -0.1713 -0.1828
vn 0.9681 0.1681 -0.1860
vn 0.9732 -0.1713 0.1533
vn 0.9733 0.1681 0.1565
vn 0.7425 -0.4446 -0.5010
vn 0.8286 -0.1677 -0.5341
vn 0.8287 0.1678 -0.5340
vn 0.7432 0.4896 -0.4560
vn 0.8340 0.5214 -0.1804
vn 0.8391 0.5214 0.1550
vn 0.7567 0.4896 0.4331
vn 0.8446 0.1678 0.5085
vn 0.8445 -0.1677 0.5086
vn 0.7574 -0.4446 0.4782
vn 0.8392 -0.5213 0.1551
vn 0.8341 -0.5213 -0.1806
vn 0.1673 0.4326 0.8859
vn 0.1768 -0.0537 0.9828
vn -0.1403 0.4326 0.8906
vn -0.1468 -0.0537 0.9877
vn 0.6070 -0.4519 0.6537
vn 0.3654 -0.1574 0.9174
vn 0.5340 0.1677 0.8287
vn 0.4560 0.4896 0.7432
vn 0.1804 0.5214 0.8340
vn -0.1550 0.5214 0.8391
vn -0.4332 0.4896 0.7567
vn -0.5085 0.1677 0.8446
vn -0.3374 -0.1574 0.9281
vn -0.5868 -0.4519 0.6719
vn -0.1552 -0.5179 0.8412
vn 0.1808 -0.5179 0.8361
vn -0.1714 -0.9789 -0.1110
vn 0.1677 -0.9789 -0.1164
vn -0.1653 -0.9861 0.0149
vn 0.1707 -0.9853 0.0047
vn -0.4827 -0.6872 -0.5430
vn -0.1795 -0.7862 -0.5914
vn 0.1540 -0.7833 -0.6022
vn 0.5645 -0.6857 -0.4595
vn 0.5719 -0.8006 -0.1786
vn 0.5771 -0.8006 0.1611
vn 0.6352 -0.6329 0.4427
vn 0.1742 -0.8104 0.5594
vn -0.1608 -0.8116 0.5616
vn -0.6046 -0.6345 0.4816
vn -0.6770 -0.7346 0.0446
vn -0.6197 -0.7775 -0.1070
vn 0.1687 0.9708 -0.1707
vn -0.1707 0.9708 -0.1687
vn 0.1738 0.9708 0.1654
vn -0.1654 0.9708 0.1738
vn 0.4371 0.7501 -0.4963
vn 0.1598 0.8367 -0.5239
vn -0.1758 0.8367 -0.5187
vn -0.4963 0.7501 -0.4371
vn -0.5239 0.8367 -0.1598
vn -0.5188 0.8367 0.1756
vn -0.4828 0.7501 0.4520
vn -0.1599 0.8367 0.5238
vn 0.1756 0.8367 0.5188
vn 0.4520 0.7501 0.4828
vn 0.5238 0.8367 0.1599
vn 0.5187 0.8367 -0.1758
vt 0.021498 0.277801
vt 0.502887 0.332855
vt 0.877287 0.994355
vt 0.286017 0.312041
vt 0.199532 0.421460
vt 0.469440 0.071260
vt 0.138954 0.676903
vt 0.318204 0.372604
vt 0.923909 0.005645
vt 0.327991 0.553299
vt 0.556136 0.676962
vt 0.666619 0.056632
vt 0.319715 0.048214
vt 0.619997 0.943368
vt 0.468634 0.428176
vt 0.627829 0.635867
vt 0.708684 0.315531
vt 0.662062 0.684469
vt 0.473554 0.128962
vt 0.482126 0.208827
vt 0.493398 0.284166
vt 0.456272 0.353551
vt 0.073439 0.302550
vt 0.080207 0.372604
vt 0.150980 0.321641
vt 0.148916 0.392286
vt 0.230378 0.322864
vt 0.193664 0.470002
vt 0.178934 0.544070
vt 0.157723 0.621556
vt 0.079503 0.684989
vt 0.915241 0.608199
vt 0.006354 0.684024
vt 0.359437 0.042993
vt 0.932011 0.529924
vt 0.417946 0.053798
vt 0.925800 0.452939
vt 0.704423 0.356807
vt 0.408791 0.422750
vt 0.784407 0.353551
vt 0.339171 0.430378
vt 0.586123 0.015131
vt 0.859225 0.372725
vt 0.520483 0.039556
vt 0.838237 0.673087
vt 0.178035 0.712161
vt 0.223748 0.743973
vt 0.762115 0.673087
vt 0.801522 0.677286
vt 0.683434 0.657168
vt 0.721581 0.673087
vt 0.616264 0.577456
vt 0.768202 0.326913
vt 0.848143 0.322714
vt 0.613917 0.497215
vt 0.554254 0.353551
vt 0.626823 0.422195
vt 0.506816 0.389463
vt 0.542766 0.629192
vt 0.519031 0.556807
vt 0.490851 0.481588
vt 0.685496 0.269471
vt 0.638874 0.730529
vt 0.619045 0.804022
vt 0.665666 0.195978
vt 0.660538 0.115867
vt 0.613917 0.884133
vt 0.720001 0.030251
vt 0.268991 0.020554
vt 0.796860 0.007082
vt 0.192063 0.000000
vt 0.055298 0.743973
vt 0.872651 0.000000
vt 0.278828 0.521609
vt 0.112053 0.000239
vt 0.000000 0.218071
vt 0.566934 0.353551
vt 0.000612 0.137822
vt 0.444978 0.750055
vt 0.635025 0.348293
vt 0.278828 0.394368
vt 0.019993 0.061543
vt 0.508187 0.724198
vt 0.332763 0.102905
vt 0.673380 0.969749
vt 0.332763 0.181692
vt 0.750239 0.992918
vt 0.312770 0.259433
vt 0.826030 1.000000
vt 0.060876 0.348178
vt 0.419017 0.294593
vt 0.355711 0.298442
vt 0.142867 0.372604
vt 0.040362 0.430727
vt 0.116776 0.447068
vt 0.400477 0.214777
vt 0.332763 0.214254
vt 0.012447 0.511643
vt 0.094318 0.524436
vt 0.397867 0.129183
vt 0.000000 0.600923
vt 0.333425 0.124146
vt 0.078472 0.608588
vt 0.468555 0.000000
vt 0.867379 0.434011
vt 0.868970 0.514853
vt 0.856126 0.599480
vt 0.108823 0.743973
vt 0.787977 0.418736
vt 0.785089 0.503352
vt 0.776119 0.593094
vt 0.437446 0.364097
vt 0.702397 0.417046
vt 0.695125 0.496977
vt 0.691144 0.582515
vt 0.923909 0.235328
vt 0.558589 0.447821
vt 0.613917 0.414401
vt 0.846272 0.257923
vt 0.761221 0.267568
vt 0.917972 0.154688
vt 0.594667 0.525484
vt 0.835525 0.173943
vt 0.746545 0.188660
vt 0.897310 0.071623
vt 0.613917 0.605131
vt 0.818245 0.085424
vt 0.734622 0.103863
vt 0.318204 0.481485
vt 0.000000 0.795437
vt 0.327991 0.481485
vt 0.107190 0.063511
vt 0.055298 0.826046
vt 0.163399 0.068483
vt 0.266802 0.085852
vt 0.092484 0.145286
vt 0.152654 0.155224
vt 0.261081 0.168790
vt 0.085882 0.230332
vt 0.140946 0.244266
vt 0.245494 0.252674
vt 0.559220 0.112783
vt 0.632229 0.092667
vt 0.332763 0.520359
vt 0.407035 0.505573
vt 0.571996 0.196714
vt 0.649861 0.180219
vt 0.356296 0.606513
vt 0.433282 0.586311
vt 0.586394 0.280534
vt 0.386731 0.690915
vt 0.660538 0.269303
vt 0.458031 0.667679
vt 0.714599 0.732432
vt 0.799650 0.742077
vt 0.278828 0.677815
vt 0.877287 0.764672
vt 0.225703 0.649189
vt 0.699923 0.811340
vt 0.788903 0.826057
vt 0.871350 0.845312
vt 0.254336 0.568563
vt 0.688001 0.896137
vt 0.771623 0.914576
vt 0.264007 0.487669
vt 0.850689 0.928377
s 0
usemtl マテリアル.001
f 45/91/1 49/97/1 48/96/1
f 47/95/2 49/98/2 46/94/2
f 49/97/3 51/100/3 48/96/3
f 49/98/4 53/103/4 52/101/4
f 1/2/5 45/91/5 11/21/5
f 12/23/6 46/93/6 45/90/6
f 14/26/7 46/94/7 13/24/7
f 2/5/8 47/95/8 14/26/8
f 15/28/9 50/99/9 47/95/9
f 50/99/10 17/30/10 53/103/10
f 53/103/11 4/7/11 18/31/11
f 52/101/12 18/31/12 19/33/12
f 52/102/13 20/36/13 51/100/13
f 51/100/14 3/6/14 9/19/14
f 48/96/15 9/19/15 10/20/15
f 11/21/16 48/96/16 10/20/16
f 54/105/17 58/110/17 57/109/17
f 56/107/18 58/110/18 55/106/18
f 58/110/19 60/113/19 57/109/19
f 58/110/20 62/115/20 61/114/20
f 3/6/21 54/104/21 23/44/21
f 20/37/22 55/106/22 54/105/22
f 18/32/23 55/106/23 19/35/23
f 4/7/24 56/108/24 18/31/24
f 24/45/25 59/111/25 56/107/25
f 59/111/26 26/50/26 62/115/26
f 62/115/27 8/16/27 27/52/27
f 61/114/28 27/52/28 28/55/28
f 61/114/29 29/57/29 60/113/29
f 60/112/30 7/15/30 21/39/30
f 57/109/31 21/38/31 22/40/31
f 23/43/32 57/109/32 22/40/32
f 63/116/33 67/123/33 66/121/33
f 65/120/34 67/123/34 64/119/34
f 67/123/35 69/125/35 66/121/35
f 67/123/36 71/128/36 70/127/36
f 7/15/37 63/117/37 32/61/37
f 29/58/38 64/118/38 63/117/38
f 27/53/39 64/119/39 28/54/39
f 8/17/40 65/120/40 27/53/40
f 33/62/41 68/124/41 65/120/41
f 68/124/42 35/66/42 71/128/42
f 71/128/43 6/12/43 36/68/43
f 70/127/44 36/68/44 37/70/44
f 70/127/45 38/73/45 69/125/45
f 69/126/46 5/11/46 30/59/46
f 66/122/47 30/59/47 31/60/47
f 32/61/48 66/122/48 31/60/48
f 72/132/49 76/137/49 75/136/49
f 74/135/50 76/137/50 73/134/50
f 76/137/51 78/139/51 75/136/51
f 76/137/52 80/141/52 79/140/52
f 5/8/53 72/129/53 41/81/53
f 38/72/54 73/133/54 72/130/54
f 37/71/55 74/135/55 73/134/55
f 6/13/56 74/135/56 36/69/56
f 42/84/57 77/138/57 74/135/57
f 77/138/58 44/88/58 80/141/58
f 80/141/59 2/4/59 14/27/59
f 80/141/60 13/25/60 79/140/60
f 79/140/61 12/23/61 78/139/61
f 78/139/62 1/1/62 39/76/62
f 75/136/63 39/76/63 40/78/63
f 41/82/64 75/136/64 40/78/64
f 81/142/65 85/147/65 84/146/65
f 83/145/66 85/148/66 82/144/66
f 85/147/67 87/150/67 84/146/67
f 85/148/68 89/153/68 88/151/68
f 3/6/69 81/142/69 9/19/69
f 23/44/70 82/143/70 81/142/70
f 21/39/71 82/144/71 22/41/71
f 7/15/72 83/145/72 21/39/72
f 32/61/73 86/149/73 83/145/73
f 86/149/74 30/59/74 89/153/74
f 89/153/75 5/11/75 41/83/75
f 88/151/76 41/83/76 40/79/76
f 88/152/77 39/77/77 87/150/77
f 87/150/78 1/2/78 11/21/78
f 84/146/79 11/21/79 10/20/79
f 9/19/80 84/146/80 10/20/80
f 90/154/81 94/160/81 93/159/81
f 92/157/82 94/160/82 91/155/82
f 94/160/83 96/163/83 93/159/83
f 94/160/84 98/166/84 97/164/84
f 8/18/85 90/154/85 33/63/85
f 26/51/86 91/155/86 90/154/86
f 24/46/87 91/156/87 25/47/87
f 4/7/88 92/158/88 24/46/88
f 17/30/89 95/162/89 92/158/89
f 95/162/90 15/28/90 98/165/90
f 98/166/91 2/3/91 44/89/91
f 97/164/92 44/89/92 43/87/92
f 97/164/93 42/85/93 96/163/93
f 96/163/94 6/14/94 35/67/94
f 93/159/95 35/67/95 34/64/95
f 33/63/96 93/159/96 34/64/96
f 45/91/97 46/92/97 49/97/97
f 47/95/98 50/99/98 49/98/98
f 49/97/99 52/102/99 51/100/99
f 49/98/100 50/99/100 53/103/100
f 1/2/101 12/22/101 45/91/101
f 12/23/102 13/25/102 46/93/102
f 14/26/103 47/95/103 46/94/103
f 2/5/104 15/28/104 47/95/104
f 15/28/105 16/29/105 50/99/105
f 50/99/106 16/29/106 17/30/106
f 53/103/107 17/30/107 4/7/107
f 52/101/108 53/103/108 18/31/108
f 52/102/109 19/34/109 20/36/109
f 51/100/110 20/36/110 3/6/110
f 48/96/111 51/100/111 9/19/111
f 11/21/112 45/91/112 48/96/112
f 54/105/113 55/106/113 58/110/113
f 56/107/114 59/111/114 58/110/114
f 58/110/115 61/114/115 60/113/115
f 58/110/116 59/111/116 62/115/116
f 3/6/117 20/36/117 54/104/117
f 20/37/118 19/35/118 55/106/118
f 18/32/119 56/107/119 55/106/119
f 4/7/120 24/46/120 56/108/120
f 24/45/121 25/48/121 59/111/121
f 59/111/122 25/48/122 26/50/122
f 62/115/123 26/50/123 8/16/123
f 61/114/124 62/115/124 27/52/124
f 61/114/125 28/55/125 29/57/125
f 60/112/126 29/58/126 7/15/126
f 57/109/127 60/113/127 21/38/127
f 23/43/128 54/105/128 57/109/128
f 63/116/129 64/119/129 67/123/129
f 65/120/130 68/124/130 67/123/130
f 67/123/131 70/127/131 69/125/131
f 67/123/132 68/124/132 71/128/132
f 7/15/133 29/58/133 63/117/133
f 29/58/134 28/56/134 64/118/134
f 27/53/135 65/120/135 64/119/135
f 8/17/136 33/62/136 65/120/136
f 33/62/137 34/65/137 68/124/137
f 68/124/138 34/65/138 35/66/138
f 71/128/139 35/66/139 6/12/139
f 70/127/140 71/128/140 36/68/140
f 70/127/141 37/70/141 38/73/141
f 69/125/142 38/73/142 5/9/142
f 66/122/143 69/126/143 30/59/143
f 32/61/144 63/117/144 66/122/144
f 72/132/145 73/134/145 76/137/145
f 74/135/146 77/138/146 76/137/146
f 76/137/147 79/140/147 78/139/147
f 76/137/148 77/138/148 80/141/148
f 5/10/149 38/74/149 72/131/149
f 38/75/150 37/71/150 73/134/150
f 37/71/151 36/69/151 74/135/151
f 6/13/152 42/84/152 74/135/152
f 42/84/153 43/86/153 77/138/153
f 77/138/154 43/86/154 44/88/154
f 80/141/155 44/88/155 2/4/155
f 80/141/156 14/27/156 13/25/156
f 79/140/157 13/25/157 12/23/157
f 78/139/158 12/23/158 1/1/158
f 75/136/159 78/139/159 39/76/159
f 41/82/160 72/132/160 75/136/160
f 81/142/161 82/143/161 85/147/161
f 83/145/162 86/149/162 85/148/162
f 85/147/163 88/152/163 87/150/163
f 85/148/164 86/149/164 89/153/164
f 3/6/165 23/44/165 81/142/165
f 23/44/166 22/42/166 82/143/166
f 21/39/167 83/145/167 82/144/167
f 7/15/168 32/61/168 83/145/168
f 32/61/169 31/60/169 86/149/169
f 86/149/170 31/60/170 30/59/170
f 89/153/171 30/59/171 5/11/171
f 88/151/172 89/153/172 41/83/172
f 88/152/173 40/80/173 39/77/173
f 87/150/174 39/77/174 1/2/174
f 84/146/175 87/150/175 11/21/175
f 9/19/176 81/142/176 84/146/176
f 90/154/177 91/155/177 94/160/177
f 92/157/178 95/161/178 94/160/178
f 94/160/179 97/164/179 96/163/179
f 94/160/180 95/161/180 98/166/180
f 8/18/181 26/51/181 90/154/181
f 26/51/182 25/49/182 91/155/182
f 24/46/183 92/158/183 91/156/183
f 4/7/184 17/30/184 92/158/184
f 17/30/185 16/29/185 95/162/185
f 95/162/186 16/29/186 15/28/186
f 98/165/187 15/28/187 2/5/187
f 97/164/188 98/166/188 44/89/188
f 97/164/189 43/87/189 42/85/189
f 96/163/190 42/85/190 6/14/190
f 93/159/191 96/163/191 35/67/191
f 33/63/192 90/154/192 93/159/192
