# Blender 3.5.0
# www.blender.org
mtllib leftFoot.mtl
o 体
o 体.001
v 0.381963 0.019892 0.274162
v 0.372366 -0.001800 -0.356231
v 0.378810 -0.001800 0.067065
v 0.376965 -0.001800 -0.054164
v 0.379630 -0.001800 0.120873
v 0.255532 -0.001800 -0.354453
v 0.265129 0.019892 0.275941
v 0.049008 -0.013387 0.279231
v 0.039411 -0.051041 -0.351163
v 0.045855 -0.001800 0.072134
v 0.044528 -0.001800 -0.015076
v 0.046674 -0.001800 0.125941
v 0.410642 -1.538301 0.003675
v 0.405047 -1.537676 -0.165244
v 0.406428 -1.538559 -0.074539
v 0.405575 -1.538559 -0.130553
v 0.407020 -1.538559 -0.035628
v 0.346190 -1.538040 -0.164348
v 0.348762 -1.541282 0.004617
v 0.347571 -1.541500 -0.073643
v 0.347236 -1.541500 -0.095639
v 0.348163 -1.541500 -0.034732
v 0.268670 -1.537370 0.005836
v 0.266097 -1.536643 -0.163129
v 0.267478 -1.536353 -0.072424
v 0.267143 -1.536353 -0.094419
v 0.268071 -1.536353 -0.033512
v 0.180442 -0.722827 0.148422
v 0.412735 -0.744519 0.005422
v 0.411096 -0.744519 -0.102242
v 0.263169 -0.722827 0.147163
v 0.177198 -0.744519 -0.064655
v 0.175486 -0.744519 -0.177156
v 0.409902 -0.744519 -0.180724
v 0.258212 -0.744519 -0.178415
v 0.178319 -0.744519 0.008991
v 0.179139 -0.744519 0.062798
v 0.414858 -0.722827 0.144854
v 0.413555 -0.744519 0.059230
v 0.413010 -0.373159 0.023457
v 0.264594 -0.351467 0.240795
v 0.408377 -0.373159 -0.280889
v 0.114418 -0.373159 0.028003
v 0.416283 -0.351467 0.238486
v 0.117692 -0.351467 0.243031
v 0.411164 -0.373160 -0.097772
v 0.113090 -0.373160 -0.059207
v 0.109785 -0.373160 -0.276343
v 0.256687 -0.373160 -0.278579
v 0.115237 -0.373160 0.081810
v 0.413829 -0.373160 0.077265
v 0.203628 -0.966110 0.076089
v 0.414431 -0.987802 -0.111356
v 0.201341 -0.987802 -0.074086
v 0.200133 -0.987802 -0.153489
v 0.296845 -0.987802 -0.154962
v 0.203061 -0.987802 0.038885
v 0.416669 -0.987802 0.035633
v 0.415609 -0.987802 -0.033952
v 0.300340 -0.966110 0.074617
v 0.413740 -0.987802 -0.156741
v 0.202002 -0.987802 -0.030700
v 0.417235 -0.966110 0.072837
vn -0.0080 0.9976 -0.0683
vn -0.9886 -0.1232 0.0869
vn 0.9998 -0.0155 -0.0152
vn -0.9927 -0.1196 0.0151
vn 0.0151 -0.1195 0.9927
vn -0.0152 0.0157 -0.9998
vn 0.9999 -0.0104 -0.0091
vn 0.0499 -0.9988 -0.0008
vn 0.0058 -0.9997 -0.0255
vn 0.0500 -0.9987 0.0048
vn -0.0641 -0.9979 0.0010
vn -0.0174 -0.9998 0.0045
vn -0.0645 -0.9976 -0.0248
vn 0.0151 -0.1204 0.9926
vn 0.9999 -0.0000 -0.0152
vn 0.0148 -0.2445 0.9695
vn -0.9853 -0.1703 0.0150
vn -0.0147 -0.2604 -0.9654
vn -0.9836 -0.1761 0.0387
vn -0.9800 -0.1991 -0.0001
vn 0.9955 0.0935 -0.0152
vn -0.9830 -0.1833 0.0150
vn 0.0152 -0.0942 0.9954
vn -0.9816 -0.1862 0.0422
vn 0.0307 -0.2000 -0.9793
vn -0.0149 -0.2002 -0.9796
vn 0.9951 0.0947 -0.0286
vn 0.0306 -0.1003 0.9945
vn 0.9998 0.0143 -0.0152
vn 0.0146 -0.2837 0.9588
vn 0.9997 0.0154 -0.0191
vn -0.9949 -0.0993 0.0151
vn -0.0151 -0.0983 -0.9950
vn -0.9933 -0.1072 0.0423
vn -0.0021 0.9901 -0.1401
vn 0.0493 0.9988 -0.0000
vn -0.0000 1.0000 -0.0000
vn -0.2220 0.9652 -0.1380
vn 0.0624 -0.9981 -0.0000
vn -0.1506 0.9856 0.0768
vn 0.1825 0.9832 -0.0028
vn -0.0998 0.9950 0.0015
vn -0.9928 -0.1192 0.0120
vn 0.0209 -0.1202 0.9925
vn -0.9927 -0.1196 0.0156
vn -0.0149 0.0157 -0.9998
vn -0.0153 0.0157 -0.9998
vn 0.9958 -0.0056 -0.0917
vn 0.0201 -0.9985 -0.0506
vn 0.0481 -0.9988 0.0021
vn -0.0648 -0.9967 -0.0492
vn -0.0487 -0.9988 0.0063
vn 0.9998 -0.0156 -0.0156
vn 0.0092 -0.1200 0.9927
vn -0.9833 -0.1722 0.0586
vn -0.9817 -0.1860 0.0400
vn -0.9776 -0.2101 0.0149
vn -0.0148 -0.2293 -0.9732
vn 0.9951 0.0949 -0.0279
vn 0.9996 0.0151 -0.0240
vn -0.9915 -0.1050 0.0763
vt 0.375000 0.000000
vt 0.375000 1.000000
vt 0.375000 0.250000
vt 0.375000 0.125000
vt 0.375000 0.187500
vt 0.375000 0.062500
vt 0.375000 0.312500
vt 0.375000 0.937500
vt 0.218750 0.750000
vt 0.375000 0.906250
vt 0.218750 0.500000
vt 0.375000 0.343750
vt 0.218750 0.625000
vt 0.218750 0.562500
vt 0.218750 0.687500
vt 0.375000 1.000000
vt 0.375000 0.000000
vt 0.125000 0.750000
vt 0.125000 0.500000
vt 0.375000 0.250000
vt 0.125000 0.625000
vt 0.375000 0.125000
vt 0.125000 0.562500
vt 0.375000 0.187500
vt 0.125000 0.687500
vt 0.375000 0.062500
vt 0.375000 0.312500
vt 0.187500 0.500000
vt 0.187500 0.750000
vt 0.375000 0.937500
vt 0.187500 0.625000
vt 0.187500 0.562500
vt 0.187500 0.687500
vt 0.218750 0.750000
vt 0.375000 0.906250
vt 0.218750 0.500000
vt 0.375000 0.343750
vt 0.218750 0.625000
vt 0.218750 0.562500
vt 0.218750 0.687500
vt 0.375000 0.906250
vt 0.218750 0.750000
vt 0.375000 0.125000
vt 0.375000 0.187500
vt 0.375000 0.937500
vt 0.218750 0.562500
vt 0.375000 0.343750
vt 0.218750 0.500000
vt 0.375000 0.250000
vt 0.375000 0.312500
vt 0.218750 0.625000
vt 0.218750 0.687500
vt 0.375000 0.000000
vt 0.375000 1.000000
vt 0.375000 0.062500
vt 0.375000 0.125000
vt 0.375000 0.937500
vt 0.375000 0.250000
vt 0.218750 0.625000
vt 0.375000 1.000000
vt 0.375000 0.000000
vt 0.218750 0.750000
vt 0.375000 0.906250
vt 0.375000 0.187500
vt 0.218750 0.562500
vt 0.218750 0.500000
vt 0.375000 0.343750
vt 0.375000 0.312500
vt 0.218750 0.687500
vt 0.375000 0.062500
vt 0.375000 0.906250
vt 0.218750 0.750000
vt 0.375000 0.187500
vt 0.218750 0.562500
vt 0.375000 0.343750
vt 0.218750 0.500000
vt 0.375000 0.312500
vt 0.218750 0.687500
vt 0.375000 0.062500
vt 0.375000 0.125000
vt 0.375000 0.937500
vt 0.375000 0.250000
vt 0.218750 0.625000
vt 0.375000 0.000000
vt 0.375000 1.000000
s 0
f 4/5/1 11/14/1 7/8/1
f 57/78/2 23/34/2 52/72/2
f 15/22/3 53/73/3 59/80/3
f 54/74/4 25/38/4 62/83/4
f 19/30/5 63/85/5 60/81/5
f 55/76/4 26/39/4 54/74/4
f 56/77/6 24/37/6 55/75/6
f 61/82/6 18/27/6 56/77/6
f 62/83/4 27/40/4 57/78/4
f 13/17/7 58/79/7 63/84/7
f 17/25/8 20/31/8 15/21/8
f 16/23/9 18/28/9 14/19/9
f 15/21/8 21/32/8 16/23/8
f 17/25/10 19/29/10 22/33/10
f 22/33/11 25/38/11 20/31/11
f 18/28/12 26/39/12 24/36/12
f 21/32/11 25/38/11 26/39/11
f 22/33/13 23/34/13 27/40/13
f 16/24/3 61/82/3 53/73/3
f 23/35/14 60/81/14 52/71/14
f 17/26/3 59/80/3 58/79/3
f 39/55/15 40/56/15 51/70/15
f 28/41/16 41/57/16 45/63/16
f 46/64/15 34/49/15 42/58/15
f 38/53/15 51/70/15 44/61/15
f 43/59/17 37/52/17 50/69/17
f 34/49/18 49/68/18 42/58/18
f 49/68/18 33/47/18 48/67/18
f 33/48/17 47/65/17 48/66/17
f 31/45/16 44/60/16 41/57/16
f 47/65/17 36/51/17 43/59/17
f 29/43/15 46/64/15 40/56/15
f 50/69/19 28/42/19 45/62/19
f 12/15/20 45/62/20 8/9/20
f 40/56/21 4/5/21 3/4/21
f 11/14/22 43/59/22 10/13/22
f 41/57/23 1/2/23 7/8/23
f 9/11/24 47/65/24 11/14/24
f 49/68/25 9/12/25 6/7/25
f 2/3/26 49/68/26 6/7/26
f 10/13/22 50/69/22 12/15/22
f 44/61/27 5/6/27 1/1/27
f 4/5/21 42/58/21 2/3/21
f 45/63/28 7/8/28 8/10/28
f 51/70/21 3/4/21 5/6/21
f 58/79/29 29/43/29 39/55/29
f 52/71/30 31/45/30 28/41/30
f 30/44/29 61/82/29 34/49/29
f 63/84/31 39/55/31 38/53/31
f 36/51/32 57/78/32 37/52/32
f 34/49/33 56/77/33 35/50/33
f 35/50/33 55/75/33 33/47/33
f 55/76/32 32/46/32 33/48/32
f 60/81/30 38/54/30 31/45/30
f 32/46/32 62/83/32 36/51/32
f 59/80/29 30/44/29 29/43/29
f 37/52/34 52/72/34 28/42/34
f 7/8/35 1/2/35 5/6/35
f 5/6/36 3/4/36 4/5/36
f 4/5/37 2/3/37 6/7/37
f 6/7/38 9/11/38 11/14/38
f 11/14/39 10/13/39 12/15/39
f 12/15/40 8/10/40 7/8/40
f 7/8/41 5/6/41 4/5/41
f 4/5/37 6/7/37 11/14/37
f 11/14/42 12/15/42 7/8/42
f 57/78/43 27/40/43 23/34/43
f 15/22/3 16/24/3 53/73/3
f 54/74/4 26/39/4 25/38/4
f 19/30/44 13/16/44 63/85/44
f 55/76/45 24/36/45 26/39/45
f 56/77/46 18/27/46 24/37/46
f 61/82/47 14/20/47 18/27/47
f 62/83/4 25/38/4 27/40/4
f 13/17/48 17/26/48 58/79/48
f 17/25/8 22/33/8 20/31/8
f 16/23/49 21/32/49 18/28/49
f 15/21/8 20/31/8 21/32/8
f 17/25/50 13/18/50 19/29/50
f 22/33/11 27/40/11 25/38/11
f 18/28/51 21/32/51 26/39/51
f 21/32/11 20/31/11 25/38/11
f 22/33/52 19/29/52 23/34/52
f 16/24/53 14/20/53 61/82/53
f 23/35/54 19/30/54 60/81/54
f 17/26/3 15/22/3 59/80/3
f 39/55/15 29/43/15 40/56/15
f 28/41/16 31/45/16 41/57/16
f 46/64/15 30/44/15 34/49/15
f 38/53/15 39/55/15 51/70/15
f 43/59/17 36/51/17 37/52/17
f 34/49/18 35/50/18 49/68/18
f 49/68/18 35/50/18 33/47/18
f 33/48/17 32/46/17 47/65/17
f 31/45/16 38/54/16 44/60/16
f 47/65/17 32/46/17 36/51/17
f 29/43/15 30/44/15 46/64/15
f 50/69/55 37/52/55 28/42/55
f 12/15/56 50/69/56 45/62/56
f 40/56/21 46/64/21 4/5/21
f 11/14/22 47/65/22 43/59/22
f 41/57/23 44/60/23 1/2/23
f 9/11/57 48/66/57 47/65/57
f 49/68/58 48/67/58 9/12/58
f 2/3/26 42/58/26 49/68/26
f 10/13/22 43/59/22 50/69/22
f 44/61/59 51/70/59 5/6/59
f 4/5/21 46/64/21 42/58/21
f 45/63/23 41/57/23 7/8/23
f 51/70/21 40/56/21 3/4/21
f 58/79/29 59/80/29 29/43/29
f 52/71/30 60/81/30 31/45/30
f 30/44/29 53/73/29 61/82/29
f 63/84/60 58/79/60 39/55/60
f 36/51/32 62/83/32 57/78/32
f 34/49/33 61/82/33 56/77/33
f 35/50/33 56/77/33 55/75/33
f 55/76/32 54/74/32 32/46/32
f 60/81/30 63/85/30 38/54/30
f 32/46/32 54/74/32 62/83/32
f 59/80/29 53/73/29 30/44/29
f 37/52/61 57/78/61 52/72/61
