# Blender 3.5.0
# www.blender.org
mtllib leftFoot.mtl
o 体.001
v 0.381963 0.019892 0.274162
v 0.372366 -0.001800 -0.356231
v 0.378810 -0.001800 0.067065
v 0.376965 -0.001800 -0.054164
v 0.379630 -0.001800 0.120873
v 0.255532 -0.001800 -0.354453
v 0.265129 0.019892 0.275941
v 0.049008 -0.013387 0.279231
v 0.039411 -0.051041 -0.351163
v 0.045855 -0.001800 0.072134
v 0.044528 -0.001800 -0.015076
v 0.046674 -0.001800 0.125941
v 0.410642 -1.538301 0.003675
v 0.405047 -1.537676 -0.165244
v 0.406428 -1.538559 -0.074539
v 0.405575 -1.538559 -0.130553
v 0.407020 -1.538559 -0.035628
v 0.346190 -1.538040 -0.164348
v 0.348762 -1.541282 0.004617
v 0.347571 -1.541500 -0.073643
v 0.347236 -1.541500 -0.095639
v 0.348163 -1.541500 -0.034732
v 0.268670 -1.537370 0.005836
v 0.266097 -1.536643 -0.163129
v 0.267478 -1.536353 -0.072424
v 0.267143 -1.536353 -0.094419
v 0.268071 -1.536353 -0.033512
v 0.180442 -0.722827 0.148422
v 0.412735 -0.744519 0.005422
v 0.411096 -0.744519 -0.102242
v 0.263169 -0.722827 0.147163
v 0.177198 -0.744519 -0.064655
v 0.175486 -0.744519 -0.177156
v 0.409902 -0.744519 -0.180724
v 0.258212 -0.744519 -0.178415
v 0.178319 -0.744519 0.008991
v 0.179139 -0.744519 0.062798
v 0.414858 -0.722827 0.144854
v 0.413555 -0.744519 0.059230
v 0.413010 -0.373159 0.023457
v 0.264594 -0.351467 0.240795
v 0.408377 -0.373159 -0.280889
v 0.114418 -0.373159 0.028003
v 0.416283 -0.351467 0.238486
v 0.117692 -0.351467 0.243031
v 0.411164 -0.373160 -0.097772
v 0.113090 -0.373160 -0.059207
v 0.109785 -0.373160 -0.276343
v 0.256687 -0.373160 -0.278579
v 0.115237 -0.373160 0.081810
v 0.413829 -0.373160 0.077265
v 0.203628 -0.966110 0.076089
v 0.414431 -0.987802 -0.111356
v 0.201341 -0.987802 -0.074086
v 0.200133 -0.987802 -0.153489
v 0.296845 -0.987802 -0.154962
v 0.203061 -0.987802 0.038885
v 0.416669 -0.987802 0.035633
v 0.415609 -0.987802 -0.033952
v 0.300340 -0.966110 0.074617
v 0.413740 -0.987802 -0.156741
v 0.202002 -0.987802 -0.030700
v 0.417235 -0.966110 0.072837
vn -0.0080 0.9976 -0.0683
vn -0.9886 -0.1232 0.0869
vn 0.9998 -0.0155 -0.0152
vn -0.9927 -0.1196 0.0151
vn 0.0151 -0.1195 0.9927
vn -0.0152 0.0157 -0.9998
vn 0.9999 -0.0104 -0.0091
vn 0.0499 -0.9988 -0.0008
vn 0.0058 -0.9997 -0.0255
vn 0.0500 -0.9987 0.0048
vn -0.0641 -0.9979 0.0010
vn -0.0174 -0.9998 0.0045
vn -0.0645 -0.9976 -0.0248
vn 0.0151 -0.1204 0.9926
vn 0.9999 -0.0000 -0.0152
vn 0.0148 -0.2445 0.9695
vn -0.9853 -0.1703 0.0150
vn -0.0147 -0.2604 -0.9654
vn -0.9836 -0.1761 0.0387
vn -0.9800 -0.1991 -0.0001
vn 0.9955 0.0935 -0.0152
vn -0.9830 -0.1833 0.0150
vn 0.0152 -0.0942 0.9954
vn -0.9816 -0.1862 0.0422
vn 0.0307 -0.2000 -0.9793
vn -0.0149 -0.2002 -0.9796
vn 0.9951 0.0947 -0.0285
vn 0.0306 -0.1003 0.9945
vn 0.9998 0.0143 -0.0152
vn 0.0146 -0.2837 0.9588
vn 0.9997 0.0154 -0.0191
vn -0.9949 -0.0993 0.0152
vn -0.0151 -0.0983 -0.9950
vn -0.9949 -0.0993 0.0151
vn -0.9933 -0.1072 0.0423
vn -0.0021 0.9901 -0.1401
vn 0.0494 0.9988 -0.0000
vn -0.0000 1.0000 -0.0000
vn -0.2220 0.9652 -0.1380
vn 0.0624 -0.9981 -0.0000
vn 0.0624 -0.9980 -0.0000
vn -0.1506 0.9856 0.0768
vn 0.1825 0.9832 -0.0028
vn -0.0998 0.9950 0.0015
vn -0.9928 -0.1192 0.0120
vn 0.0209 -0.1202 0.9925
vn -0.9927 -0.1196 0.0156
vn -0.0149 0.0157 -0.9998
vn -0.0153 0.0157 -0.9998
vn 0.9958 -0.0056 -0.0917
vn 0.0201 -0.9985 -0.0506
vn 0.0482 -0.9988 0.0021
vn -0.0648 -0.9967 -0.0492
vn -0.0487 -0.9988 0.0063
vn 0.9998 -0.0156 -0.0156
vn 0.0092 -0.1200 0.9927
vn -0.9833 -0.1722 0.0586
vn -0.9817 -0.1860 0.0400
vn -0.9776 -0.2101 0.0149
vn -0.0148 -0.2293 -0.9732
vn 0.9951 0.0949 -0.0279
vn 0.9996 0.0151 -0.0240
vn -0.0152 -0.0983 -0.9950
vn -0.9915 -0.1050 0.0763
vt 0.000000 0.711939
vt 0.443846 0.709217
vt 0.579812 0.007689
vt 0.290066 0.711939
vt 0.443846 0.999283
vt 0.733504 0.705809
vt 0.509139 0.764965
vt 0.095523 0.705248
vt 0.509139 0.709217
vt 0.443688 0.860439
vt 0.151239 0.707164
vt 0.509139 0.789708
vt 0.443597 0.779984
vt 0.070794 0.704397
vt 0.786642 0.713747
vt 0.390148 0.999289
vt 0.390148 0.709224
vt 0.632987 0.000000
vt 0.290066 0.022340
vt 0.733504 0.000655
vt 0.290309 0.709708
vt 0.290066 1.000000
vt 0.579812 0.002676
vt 0.888259 0.706255
vt 0.290594 0.804734
vt 0.383862 0.005071
vt 0.290640 0.844820
vt 0.423644 0.000000
vt 0.290566 0.780002
vt 0.359318 0.008199
vt 0.668949 0.729420
vt 0.148725 0.000000
vt 0.443846 0.709229
vt 0.445237 0.786930
vt 0.825132 0.000000
vt 0.226374 0.002991
vt 0.445235 0.745216
vt 0.184701 0.001152
vt 0.445235 0.770974
vt 0.210444 0.002037
vt 0.445235 0.727323
vt 0.166818 0.000537
vt 0.851926 0.003835
vt 0.472302 0.786928
vt 0.472292 0.709217
vt 0.697305 0.726680
vt 0.472290 0.745205
vt 0.472290 0.755319
vt 0.472291 0.727311
vt 0.502779 0.709217
vt 0.509136 0.709230
vt 0.733504 0.719661
vt 0.509137 0.786931
vt 0.579812 0.699065
vt 0.888259 0.009906
vt 0.538419 0.704208
vt 0.509139 0.745222
vt 0.548452 0.702929
vt 0.509139 0.755336
vt 0.520669 0.706471
vt 0.509139 0.727328
vt 0.720240 0.337551
vt 0.390638 0.343867
vt 0.135332 0.364620
vt 0.184814 0.366322
vt 0.682588 0.342995
vt 0.489095 0.341265
vt 0.875800 0.373760
vt 0.540413 0.334724
vt 0.220883 0.367563
vt 0.769184 0.357833
vt 0.838175 0.368139
vt 0.455500 0.345548
vt 0.430956 0.348676
vt 0.070907 0.372381
vt 0.613550 0.352978
vt 0.110603 0.363770
vt 0.121162 0.534941
vt 0.657441 0.169012
vt 0.743319 0.531404
vt 0.261036 0.539753
vt 0.425405 0.174750
vt 0.588403 0.178994
vt 0.021993 0.541508
vt 0.326059 0.177465
vt 0.724301 0.159344
vt 0.176877 0.536857
vt 0.465187 0.169679
vt 0.564235 0.157054
vt 0.879124 0.551691
vt 0.812310 0.541710
vt 0.400860 0.177879
vt 0.096432 0.534090
vt 0.725789 0.454030
vt 0.437707 0.451075
vt 0.192828 0.254661
vt 0.507470 0.452130
vt 0.881364 0.261027
vt 0.543690 0.447513
vt 0.837378 0.254456
vt 0.455937 0.458699
vt 0.125273 0.252337
vt 0.157253 0.253437
vt 0.681772 0.460395
vt 0.213686 0.255378
vt 0.784213 0.246514
vt 0.487679 0.454653
vt 0.107831 0.261715
vt 0.628570 0.468088
s 0
usemtl マテリアル
f 4/10/1 11/27/1 7/17/1
f 57/101/2 23/50/2 52/95/2
f 15/38/3 53/96/3 59/103/3
f 54/97/4 25/56/4 62/107/4
f 19/46/5 63/109/5 60/104/5
f 55/99/4 26/58/4 54/97/4
f 56/100/6 24/55/6 55/98/6
f 61/106/6 18/43/6 56/100/6
f 62/107/4 27/60/4 57/101/4
f 13/32/7 58/102/7 63/108/7
f 17/41/8 20/47/8 15/37/8
f 16/39/9 18/44/9 14/34/9
f 15/37/8 21/48/8 16/39/8
f 17/41/10 19/45/10 22/49/10
f 22/49/11 25/57/11 20/47/11
f 18/44/12 26/59/12 24/53/12
f 21/48/11 25/57/11 26/59/11
f 22/49/13 23/51/13 27/61/13
f 16/40/3 61/105/3 53/96/3
f 23/52/14 60/104/14 52/94/14
f 17/42/3 59/103/3 58/102/3
f 39/77/15 40/78/15 51/93/15
f 28/62/16 41/79/16 45/86/16
f 46/87/15 34/70/15 42/81/15
f 38/75/15 51/93/15 44/84/15
f 43/82/17 37/74/17 50/92/17
f 34/71/18 49/91/18 42/80/18
f 49/91/18 33/68/18 48/90/18
f 33/69/17 47/88/17 48/89/17
f 31/66/16 44/83/16 41/79/16
f 47/88/17 36/73/17 43/82/17
f 29/64/15 46/87/15 40/78/15
f 50/92/19 28/63/19 45/85/19
f 12/30/20 45/85/20 8/19/20
f 40/78/21 4/11/21 3/8/21
f 11/28/22 43/82/22 10/26/22
f 41/79/23 1/3/23 7/18/23
f 9/23/24 47/88/24 11/28/24
f 49/91/25 9/24/25 6/15/25
f 2/6/26 49/91/26 6/15/26
f 10/26/22 50/92/22 12/30/22
f 44/84/27 5/14/27 1/1/27
f 4/11/21 42/81/21 2/4/21
f 45/86/28 7/18/28 8/20/28
f 51/93/21 3/8/21 5/14/21
f 58/102/29 29/64/29 39/77/29
f 52/94/30 31/66/30 28/62/30
f 30/65/29 61/105/29 34/70/29
f 63/108/31 39/77/31 38/75/31
f 36/73/32 57/101/32 37/74/32
f 34/71/33 56/100/33 35/72/33
f 35/72/33 55/98/33 33/68/33
f 55/99/34 32/67/34 33/69/34
f 60/104/30 38/76/30 31/66/30
f 32/67/34 62/107/34 36/73/34
f 59/103/29 30/65/29 29/64/29
f 37/74/35 52/95/35 28/63/35
f 7/17/36 1/2/36 5/13/36
f 5/12/37 3/7/37 4/9/37
f 4/10/38 2/5/38 6/16/38
f 6/16/39 9/22/39 11/27/39
f 11/27/40 10/25/41 12/29/41
f 12/29/42 8/21/42 7/17/42
f 7/17/43 5/13/43 4/10/43
f 4/10/38 6/16/38 11/27/38
f 11/27/44 12/29/44 7/17/44
f 57/101/45 27/60/45 23/50/45
f 15/38/3 16/40/3 53/96/3
f 54/97/4 26/58/4 25/56/4
f 19/46/46 13/31/46 63/109/46
f 55/99/47 24/54/47 26/58/47
f 56/100/48 18/43/48 24/55/48
f 61/106/49 14/35/49 18/43/49
f 62/107/4 25/56/4 27/60/4
f 13/32/50 17/42/50 58/102/50
f 17/41/8 22/49/8 20/47/8
f 16/39/51 21/48/51 18/44/51
f 15/37/8 20/47/8 21/48/8
f 17/41/52 13/33/52 19/45/52
f 22/49/11 27/61/11 25/57/11
f 18/44/53 21/48/53 26/59/53
f 21/48/11 20/47/11 25/57/11
f 22/49/54 19/45/54 23/51/54
f 16/40/55 14/36/55 61/105/55
f 23/52/56 19/46/56 60/104/56
f 17/42/3 15/38/3 59/103/3
f 39/77/15 29/64/15 40/78/15
f 28/62/16 31/66/16 41/79/16
f 46/87/15 30/65/15 34/70/15
f 38/75/15 39/77/15 51/93/15
f 43/82/17 36/73/17 37/74/17
f 34/71/18 35/72/18 49/91/18
f 49/91/18 35/72/18 33/68/18
f 33/69/17 32/67/17 47/88/17
f 31/66/16 38/76/16 44/83/16
f 47/88/17 32/67/17 36/73/17
f 29/64/15 30/65/15 46/87/15
f 50/92/57 37/74/57 28/63/57
f 12/30/58 50/92/58 45/85/58
f 40/78/21 46/87/21 4/11/21
f 11/28/22 47/88/22 43/82/22
f 41/79/23 44/83/23 1/3/23
f 9/23/59 48/89/59 47/88/59
f 49/91/60 48/90/60 9/24/60
f 2/6/26 42/80/26 49/91/26
f 10/26/22 43/82/22 50/92/22
f 44/84/61 51/93/61 5/14/61
f 4/11/21 46/87/21 42/81/21
f 45/86/23 41/79/23 7/18/23
f 51/93/21 40/78/21 3/8/21
f 58/102/29 59/103/29 29/64/29
f 52/94/30 60/104/30 31/66/30
f 30/65/29 53/96/29 61/105/29
f 63/108/62 58/102/62 39/77/62
f 36/73/34 62/107/34 57/101/34
f 34/71/33 61/106/33 56/100/33
f 35/72/63 56/100/63 55/98/63
f 55/99/34 54/97/34 32/67/34
f 60/104/30 63/109/30 38/76/30
f 32/67/32 54/97/32 62/107/32
f 59/103/29 53/96/29 30/65/29
f 37/74/64 57/101/64 52/95/64
