# Blender 3.5.0
# www.blender.org
mtllib LeftArm.mtl
o 体
v 0.070972 2.488585 -0.034234
v 0.070972 2.488585 0.076645
v 0.070972 2.488585 -0.088048
v 0.005757 2.328893 -0.034234
v 0.005757 2.328893 0.087009
v 0.005757 2.328893 -0.088048
v 0.950181 2.328505 -0.034234
v 0.950181 2.328505 0.076645
v 0.950181 2.328505 -0.088048
v 0.884967 2.168813 -0.034234
v 0.884967 2.168813 0.087009
v 0.884967 2.168813 -0.088048
v 0.451322 2.247768 0.087009
v 0.451322 2.247768 -0.034234
v 0.451322 2.247768 -0.088048
v 0.516536 2.407460 -0.088048
v 0.516536 2.407460 -0.034234
v 0.516536 2.407460 0.076645
v 0.228539 2.288330 -0.034234
v 0.293754 2.448022 -0.088048
v 0.293754 2.448022 0.076645
v 0.228539 2.288330 0.087009
v 0.228539 2.288330 -0.088048
v 0.293754 2.448022 -0.034234
v 0.668144 2.208290 0.087009
v 0.668144 2.208290 -0.088048
v 0.733359 2.367982 -0.034234
v 0.668144 2.208290 -0.034234
v 0.733359 2.367982 -0.088048
v 0.733359 2.367982 0.076645
vn -0.0000 -0.0000 -1.0000
vn -0.1791 -0.9838 -0.0000
vn -0.9258 0.3781 -0.0000
vn 0.9258 -0.3781 -0.0000
vn 0.1791 0.9838 -0.0000
vn 0.0110 0.0603 0.9981
vt 0.875000 0.625000
vt 0.875000 0.562500
vt 0.625000 0.187500
vt 0.625000 0.062500
vt 0.875000 0.687500
vt 0.562500 0.125000
vt 0.562500 0.187500
vt 0.562500 0.062500
vt 0.625000 0.125000
vt 0.875000 0.625000
vt 0.875000 0.562500
vt 0.625000 0.187500
vt 0.625000 0.062500
vt 0.875000 0.687500
vt 0.562500 0.125000
vt 0.562500 0.187500
vt 0.562500 0.062500
vt 0.562500 0.187500
vt 0.562500 0.125000
vt 0.562500 0.062500
vt 0.875000 0.687500
vt 0.625000 0.062500
vt 0.875000 0.625000
vt 0.875000 0.562500
vt 0.625000 0.187500
vt 0.562500 0.125000
vt 0.625000 0.062500
vt 0.875000 0.687500
vt 0.875000 0.562500
vt 0.625000 0.187500
vt 0.562500 0.187500
vt 0.562500 0.062500
vt 0.875000 0.625000
vt 0.562500 0.187500
vt 0.562500 0.062500
vt 0.875000 0.625000
vt 0.562500 0.125000
vt 0.875000 0.687500
vt 0.625000 0.062500
vt 0.625000 0.187500
vt 0.875000 0.562500
s 0
f 29/39/1 12/17/1 26/35/1
f 10/15/2 25/34/2 28/37/2
f 1/1/3 4/6/3 2/2/3
f 9/13/4 10/15/4 12/17/4
f 10/15/4 8/12/4 11/16/4
f 8/11/5 27/36/5 30/41/5
f 12/17/2 28/37/2 26/35/2
f 7/10/5 29/38/5 27/36/5
f 11/16/6 30/40/6 25/34/6
f 13/18/6 21/30/6 22/31/6
f 17/23/5 20/28/5 24/33/5
f 15/20/2 19/26/2 23/32/2
f 18/24/5 24/33/5 21/29/5
f 14/19/2 22/31/2 19/26/2
f 20/27/1 15/20/1 23/32/1
f 3/4/1 23/32/1 6/8/1
f 19/26/2 5/7/2 4/6/2
f 21/29/5 1/1/5 2/2/5
f 23/32/2 4/6/2 6/8/2
f 24/33/5 3/5/5 1/1/5
f 22/31/6 2/3/6 5/7/6
f 25/34/6 18/25/6 13/18/6
f 27/36/5 16/21/5 17/23/5
f 26/35/2 14/19/2 15/20/2
f 30/41/5 17/23/5 18/24/5
f 28/37/2 13/18/2 14/19/2
f 16/22/1 26/35/1 15/20/1
f 29/39/1 9/13/1 12/17/1
f 10/15/2 11/16/2 25/34/2
f 1/1/3 3/4/3 6/8/3
f 4/6/3 5/7/3 2/2/3
f 1/1/3 6/8/3 4/6/3
f 9/13/4 7/9/4 10/15/4
f 10/15/4 7/9/4 8/12/4
f 8/11/5 7/10/5 27/36/5
f 12/17/2 10/15/2 28/37/2
f 7/10/5 9/14/5 29/38/5
f 11/16/6 8/12/6 30/40/6
f 13/18/6 18/25/6 21/30/6
f 17/23/5 16/21/5 20/28/5
f 15/20/2 14/19/2 19/26/2
f 18/24/5 17/23/5 24/33/5
f 14/19/2 13/18/2 22/31/2
f 20/27/1 16/22/1 15/20/1
f 3/4/1 20/27/1 23/32/1
f 19/26/2 22/31/2 5/7/2
f 21/29/5 24/33/5 1/1/5
f 23/32/2 19/26/2 4/6/2
f 24/33/5 20/28/5 3/5/5
f 22/31/6 21/30/6 2/3/6
f 25/34/6 30/40/6 18/25/6
f 27/36/5 29/38/5 16/21/5
f 26/35/2 28/37/2 14/19/2
f 30/41/5 27/36/5 17/23/5
f 28/37/2 25/34/2 13/18/2
f 16/22/1 29/39/1 26/35/1
