# Blender 3.5.0
# www.blender.org
mtllib RightFoot.mtl
o 体
v -0.383102 1.575319 -0.256234
v -0.383102 1.553627 0.374232
v -0.383102 1.553627 -0.049113
v -0.383102 1.553627 0.072130
v -0.383102 1.553627 -0.102927
v -0.266255 1.553627 0.374232
v -0.266255 1.575319 -0.256234
v -0.050109 1.542040 -0.256234
v -0.050109 1.504386 0.374232
v -0.050109 1.553627 -0.049113
v -0.050109 1.553627 0.038107
v -0.050109 1.553627 -0.102927
v -0.415895 0.017126 0.013785
v -0.412872 0.017751 0.182770
v -0.412872 0.016868 0.092054
v -0.412872 0.016868 0.148075
v -0.412872 0.016868 0.053138
v -0.354008 0.017387 0.182770
v -0.354008 0.014145 0.013785
v -0.354008 0.013927 0.092054
v -0.354008 0.013927 0.114052
v -0.354008 0.013927 0.053138
v -0.273906 0.018057 0.013785
v -0.273906 0.018784 0.182770
v -0.273906 0.019074 0.092054
v -0.273906 0.019074 0.114052
v -0.273906 0.019074 0.053138
v -0.183519 0.832600 -0.127441
v -0.417962 0.810908 0.012006
v -0.417962 0.810908 0.119683
v -0.266255 0.832600 -0.127441
v -0.183519 0.810908 0.085660
v -0.183519 0.810908 0.198174
v -0.417962 0.810908 0.198174
v -0.266255 0.810908 0.198174
v -0.183519 0.810908 0.012006
v -0.183519 0.810908 -0.041808
v -0.417962 0.832600 -0.127441
v -0.417962 0.810908 -0.041808
v -0.417962 1.182268 -0.006031
v -0.266255 1.203960 -0.221084
v -0.417962 1.182268 0.298350
v -0.119335 1.182268 -0.006031
v -0.417962 1.203960 -0.221084
v -0.119335 1.203960 -0.221084
v -0.417962 1.182267 0.115212
v -0.119335 1.182267 0.081189
v -0.119335 1.182267 0.298350
v -0.266255 1.182267 0.298350
v -0.119335 1.182267 -0.059845
v -0.417962 1.182267 -0.059845
v -0.207803 0.589317 -0.055470
v -0.421435 0.567625 0.128745
v -0.207803 0.567625 0.094722
v -0.207803 0.567625 0.174135
v -0.304526 0.567625 0.174135
v -0.207803 0.567625 -0.018261
v -0.421435 0.567625 -0.018261
v -0.421435 0.567625 0.051332
v -0.304526 0.589317 -0.055470
v -0.421435 0.567625 0.174135
v -0.207803 0.567625 0.051332
v -0.421435 0.589317 -0.055470
vn -0.0000 1.0000 -0.0000
vn 0.9898 -0.1232 -0.0718
vn -0.9999 -0.0155 -0.0000
vn 0.9928 -0.1196 -0.0000
vn -0.0000 -0.1195 -0.9928
vn -0.0000 0.0157 0.9999
vn -0.9999 -0.0104 -0.0061
vn -0.0499 -0.9988 -0.0000
vn -0.0062 -0.9997 0.0254
vn -0.0499 -0.9987 -0.0055
vn 0.0641 -0.9979 -0.0000
vn 0.0174 -0.9998 -0.0042
vn 0.0641 -0.9976 0.0258
vn -0.0000 -0.1204 -0.9927
vn -1.0000 -0.0000 -0.0000
vn -0.0000 -0.2445 -0.9696
vn 0.9854 -0.1703 -0.0000
vn -0.0000 -0.2604 0.9655
vn 0.9841 -0.1761 -0.0237
vn 0.9799 -0.1991 0.0150
vn -0.9956 0.0935 -0.0000
vn 0.9831 -0.1833 -0.0000
vn -0.0000 -0.0942 -0.9956
vn 0.9787 -0.2033 -0.0298
vn -0.0456 -0.2000 0.9787
vn -0.0000 -0.2002 0.9798
vn -0.9954 0.0947 0.0134
vn -0.0154 -0.1003 -0.9948
vn -0.9999 0.0143 -0.0000
vn -0.0000 -0.2837 -0.9589
vn -0.9999 0.0154 0.0039
vn 0.9951 -0.0993 -0.0000
vn -0.0000 -0.0983 0.9952
vn 0.9939 -0.1072 -0.0272
vn -0.0000 0.9901 0.1401
vn 0.2199 0.9652 0.1414
vn 0.1474 0.9575 0.2478
vn -0.0000 0.9972 -0.0754
vn 0.9929 -0.1192 0.0031
vn -0.0058 -0.1202 -0.9927
vn 0.9928 -0.1196 -0.0005
vn -0.0003 0.0157 0.9999
vn 0.0001 0.0157 0.9999
vn -0.9971 -0.0056 0.0766
vn -0.0208 -0.9985 0.0503
vn -0.0481 -0.9988 -0.0028
vn 0.0640 -0.9967 0.0502
vn 0.0488 -0.9988 -0.0055
vn -0.9999 -0.0156 0.0004
vn 0.0059 -0.1200 -0.9928
vn 0.9841 -0.1722 -0.0436
vn 0.9822 -0.1860 -0.0250
vn -0.0000 -0.2293 0.9734
vn -0.9954 0.0949 0.0128
vn -0.9998 0.0151 0.0088
vn 0.9926 -0.1050 -0.0612
vt 0.375000 0.000000
vt 0.375000 1.000000
vt 0.375000 0.250000
vt 0.375000 0.125000
vt 0.375000 0.187500
vt 0.375000 0.062500
vt 0.375000 0.312500
vt 0.375000 0.937500
vt 0.218750 0.750000
vt 0.375000 0.906250
vt 0.218750 0.500000
vt 0.375000 0.343750
vt 0.218750 0.625000
vt 0.218750 0.562500
vt 0.218750 0.687500
vt 0.375000 1.000000
vt 0.375000 0.000000
vt 0.125000 0.750000
vt 0.125000 0.500000
vt 0.375000 0.250000
vt 0.125000 0.625000
vt 0.375000 0.125000
vt 0.125000 0.562500
vt 0.375000 0.187500
vt 0.125000 0.687500
vt 0.375000 0.062500
vt 0.375000 0.312500
vt 0.187500 0.500000
vt 0.187500 0.750000
vt 0.375000 0.937500
vt 0.187500 0.625000
vt 0.187500 0.562500
vt 0.187500 0.687500
vt 0.218750 0.750000
vt 0.375000 0.906250
vt 0.218750 0.500000
vt 0.375000 0.343750
vt 0.218750 0.625000
vt 0.218750 0.562500
vt 0.218750 0.687500
vt 0.375000 0.906250
vt 0.218750 0.750000
vt 0.375000 0.125000
vt 0.375000 0.187500
vt 0.375000 0.937500
vt 0.218750 0.562500
vt 0.375000 0.343750
vt 0.218750 0.500000
vt 0.375000 0.250000
vt 0.375000 0.312500
vt 0.218750 0.625000
vt 0.218750 0.687500
vt 0.375000 0.000000
vt 0.375000 1.000000
vt 0.375000 0.062500
vt 0.375000 0.125000
vt 0.375000 0.937500
vt 0.375000 0.250000
vt 0.218750 0.625000
vt 0.375000 1.000000
vt 0.375000 0.000000
vt 0.218750 0.750000
vt 0.375000 0.906250
vt 0.375000 0.187500
vt 0.218750 0.562500
vt 0.218750 0.500000
vt 0.375000 0.343750
vt 0.375000 0.312500
vt 0.218750 0.687500
vt 0.375000 0.062500
vt 0.375000 0.906250
vt 0.218750 0.750000
vt 0.375000 0.187500
vt 0.218750 0.562500
vt 0.375000 0.343750
vt 0.218750 0.500000
vt 0.375000 0.312500
vt 0.218750 0.687500
vt 0.375000 0.062500
vt 0.375000 0.125000
vt 0.375000 0.937500
vt 0.375000 0.250000
vt 0.218750 0.625000
vt 0.375000 0.000000
vt 0.375000 1.000000
s 0
f 5/6/1 6/7/1 12/15/1
f 57/78/2 23/34/2 52/72/2
f 15/22/3 53/73/3 59/80/3
f 54/74/4 25/38/4 62/83/4
f 19/30/5 63/85/5 60/81/5
f 55/76/4 26/39/4 54/74/4
f 56/77/6 24/37/6 55/75/6
f 61/82/6 18/27/6 56/77/6
f 62/83/4 27/40/4 57/78/4
f 13/17/7 58/79/7 63/84/7
f 17/25/8 20/31/8 15/21/8
f 16/23/9 18/28/9 14/19/9
f 15/21/8 21/32/8 16/23/8
f 17/25/10 19/29/10 22/33/10
f 22/33/11 25/38/11 20/31/11
f 18/28/12 26/39/12 24/36/12
f 20/31/11 26/39/11 21/32/11
f 22/33/13 23/34/13 27/40/13
f 16/24/3 61/82/3 53/73/3
f 23/35/14 60/81/14 52/71/14
f 17/26/3 59/80/3 58/79/3
f 39/55/15 40/56/15 51/70/15
f 28/41/16 41/57/16 45/63/16
f 46/64/15 34/49/15 42/58/15
f 38/53/15 51/70/15 44/61/15
f 43/59/17 37/52/17 50/69/17
f 34/49/18 49/68/18 42/58/18
f 49/68/18 33/47/18 48/67/18
f 33/48/17 47/65/17 48/66/17
f 31/45/16 44/60/16 41/57/16
f 47/65/17 36/51/17 43/59/17
f 29/43/15 46/64/15 40/56/15
f 50/69/19 28/42/19 45/62/19
f 12/15/20 45/62/20 8/9/20
f 40/56/21 4/5/21 3/4/21
f 11/14/22 43/59/22 10/13/22
f 41/57/23 1/2/23 7/8/23
f 48/66/24 11/14/24 9/11/24
f 49/68/25 9/12/25 6/7/25
f 2/3/26 49/68/26 6/7/26
f 10/13/22 50/69/22 12/15/22
f 44/61/27 5/6/27 1/1/27
f 4/5/21 42/58/21 2/3/21
f 45/63/28 7/8/28 8/10/28
f 51/70/21 3/4/21 5/6/21
f 58/79/29 29/43/29 39/55/29
f 52/71/30 31/45/30 28/41/30
f 30/44/29 61/82/29 34/49/29
f 63/84/31 39/55/31 38/53/31
f 36/51/32 57/78/32 37/52/32
f 34/49/33 56/77/33 35/50/33
f 35/50/33 55/75/33 33/47/33
f 55/76/32 32/46/32 33/48/32
f 60/81/30 38/54/30 31/45/30
f 32/46/32 62/83/32 36/51/32
f 59/80/29 30/44/29 29/43/29
f 37/52/34 52/72/34 28/42/34
f 7/8/35 1/2/35 5/6/35
f 5/6/1 3/4/1 4/5/1
f 4/5/1 2/3/1 6/7/1
f 6/7/36 9/11/36 11/14/36
f 6/7/1 11/14/1 10/13/1
f 5/6/1 4/5/1 6/7/1
f 8/10/37 7/8/37 5/6/37
f 6/7/1 10/13/1 12/15/1
f 12/15/38 8/10/38 5/6/38
f 57/78/39 27/40/39 23/34/39
f 15/22/3 16/24/3 53/73/3
f 54/74/4 26/39/4 25/38/4
f 19/30/40 13/16/40 63/85/40
f 55/76/41 24/36/41 26/39/41
f 56/77/42 18/27/42 24/37/42
f 61/82/43 14/20/43 18/27/43
f 62/83/4 25/38/4 27/40/4
f 13/17/44 17/26/44 58/79/44
f 17/25/8 22/33/8 20/31/8
f 16/23/45 21/32/45 18/28/45
f 15/21/8 20/31/8 21/32/8
f 17/25/46 13/18/46 19/29/46
f 22/33/11 27/40/11 25/38/11
f 18/28/47 21/32/47 26/39/47
f 20/31/11 25/38/11 26/39/11
f 22/33/48 19/29/48 23/34/48
f 16/24/49 14/20/49 61/82/49
f 23/35/50 19/30/50 60/81/50
f 17/26/3 15/22/3 59/80/3
f 39/55/15 29/43/15 40/56/15
f 28/41/16 31/45/16 41/57/16
f 46/64/15 30/44/15 34/49/15
f 38/53/15 39/55/15 51/70/15
f 43/59/17 36/51/17 37/52/17
f 34/49/18 35/50/18 49/68/18
f 49/68/18 35/50/18 33/47/18
f 33/48/17 32/46/17 47/65/17
f 31/45/16 38/54/16 44/60/16
f 47/65/17 32/46/17 36/51/17
f 29/43/15 30/44/15 46/64/15
f 50/69/51 37/52/51 28/42/51
f 12/15/52 50/69/52 45/62/52
f 40/56/21 46/64/21 4/5/21
f 11/14/22 47/65/22 43/59/22
f 41/57/23 44/60/23 1/2/23
f 48/66/22 47/65/22 11/14/22
f 49/68/53 48/67/53 9/12/53
f 2/3/26 42/58/26 49/68/26
f 10/13/22 43/59/22 50/69/22
f 44/61/54 51/70/54 5/6/54
f 4/5/21 46/64/21 42/58/21
f 45/63/23 41/57/23 7/8/23
f 51/70/21 40/56/21 3/4/21
f 58/79/29 59/80/29 29/43/29
f 52/71/30 60/81/30 31/45/30
f 30/44/29 53/73/29 61/82/29
f 63/84/55 58/79/55 39/55/55
f 36/51/32 62/83/32 57/78/32
f 34/49/33 61/82/33 56/77/33
f 35/50/33 56/77/33 55/75/33
f 55/76/32 54/74/32 32/46/32
f 60/81/30 63/85/30 38/54/30
f 32/46/32 54/74/32 62/83/32
f 59/80/29 53/73/29 30/44/29
f 37/52/56 57/78/56 52/72/56
