# Blender 3.5.0
# www.blender.org
mtllib rightArm.mtl
o 体
v -0.080132 2.488585 0.063052
v -0.081819 2.488585 -0.047814
v -0.079312 2.488585 0.116860
v -0.014924 2.328893 0.062059
v -0.016770 2.328893 -0.059169
v -0.014105 2.328893 0.115867
v -1.341325 2.254985 0.082252
v -1.343013 2.254985 -0.028614
v -1.340506 2.254985 0.136060
v -1.276118 2.095293 0.081259
v -1.277963 2.095293 -0.039969
v -1.275299 2.095293 0.135067
v -0.462283 2.247768 -0.052387
v -0.460437 2.247768 0.068842
v -0.459618 2.247768 0.122650
v -0.524826 2.407460 0.123642
v -0.525645 2.407460 0.069834
v -0.527333 2.407460 -0.041031
v -0.237681 2.288330 0.065450
v -0.302069 2.448022 0.120251
v -0.304576 2.448022 -0.044423
v -0.239526 2.288330 -0.055778
v -0.236862 2.288330 0.119258
v -0.302888 2.448022 0.066443
v -0.679080 2.208290 -0.049086
v -0.676416 2.208290 0.125950
v -0.742442 2.367982 0.073135
v -0.677235 2.208290 0.072142
v -0.741623 2.367982 0.126943
v -0.744130 2.367982 -0.037731
v -0.978522 2.151792 -0.044528
v -0.975857 2.151792 0.130509
v -1.041884 2.311484 0.077693
v -0.976676 2.151792 0.076701
v -1.041065 2.311484 0.131501
v -1.043571 2.311484 -0.033172
vn 0.9257 0.3781 -0.0141
vn 0.0152 -0.0000 0.9999
vn 0.1854 -0.9827 -0.0028
vn -0.9257 -0.3781 0.0141
vn -0.1854 0.9827 0.0028
vn -0.0265 0.0601 -0.9978
vn -0.0262 0.0603 -0.9978
vn -0.1791 0.9838 0.0027
vn 0.1791 -0.9838 -0.0027
vn 1.0000 0.0073 -0.0000
vt 0.875000 0.625000
vt 0.875000 0.562500
vt 0.625000 0.187500
vt 0.625000 0.062500
vt 0.875000 0.687500
vt 0.562500 0.125000
vt 0.562500 0.187500
vt 0.562500 0.062500
vt 0.625000 0.125000
vt 0.875000 0.625000
vt 0.875000 0.562500
vt 0.625000 0.187500
vt 0.625000 0.062500
vt 0.875000 0.687500
vt 0.562500 0.125000
vt 0.562500 0.187500
vt 0.562500 0.062500
vt 0.562500 0.187500
vt 0.562500 0.125000
vt 0.562500 0.062500
vt 0.875000 0.687500
vt 0.625000 0.062500
vt 0.875000 0.625000
vt 0.625000 0.187500
vt 0.875000 0.562500
vt 0.562500 0.125000
vt 0.625000 0.062500
vt 0.875000 0.687500
vt 0.875000 0.562500
vt 0.625000 0.187500
vt 0.562500 0.187500
vt 0.562500 0.062500
vt 0.875000 0.625000
vt 0.562500 0.187500
vt 0.562500 0.062500
vt 0.875000 0.625000
vt 0.562500 0.125000
vt 0.875000 0.687500
vt 0.625000 0.062500
vt 0.625000 0.187500
vt 0.875000 0.562500
vt 0.562500 0.187500
vt 0.562500 0.062500
vt 0.875000 0.625000
vt 0.562500 0.125000
vt 0.875000 0.687500
vt 0.625000 0.062500
vt 0.625000 0.187500
vt 0.875000 0.562500
s 0
f 3/4/1 4/6/1 2/2/1
f 35/47/2 12/17/2 32/43/2
f 34/45/3 11/16/3 31/42/3
f 9/13/4 10/15/4 12/17/4
f 10/15/4 8/12/4 11/16/4
f 8/11/5 33/44/5 36/49/5
f 12/17/3 34/45/3 32/43/3
f 7/10/5 35/46/5 33/44/5
f 11/16/6 36/48/6 31/42/6
f 13/18/7 21/30/7 22/31/7
f 24/33/8 16/21/8 20/28/8
f 23/32/9 14/19/9 19/26/9
f 21/29/8 17/23/8 24/33/8
f 14/19/9 22/31/9 19/26/9
f 20/27/2 15/20/2 23/32/2
f 3/4/2 23/32/2 6/8/2
f 4/6/9 22/31/9 5/7/9
f 2/2/8 24/33/8 1/1/8
f 23/32/9 4/6/9 6/8/9
f 24/33/8 3/5/8 1/1/8
f 22/31/7 2/3/7 5/7/7
f 25/34/7 18/24/7 13/18/7
f 17/23/8 29/38/8 16/21/8
f 26/35/9 14/19/9 15/20/9
f 18/25/8 27/36/8 17/23/8
f 14/19/9 25/34/9 13/18/9
f 16/22/2 26/35/2 15/20/2
f 31/42/6 30/40/6 25/34/6
f 27/36/5 35/46/5 29/38/5
f 32/43/3 28/37/3 26/35/3
f 30/41/5 33/44/5 27/36/5
f 28/37/3 31/42/3 25/34/3
f 29/39/2 32/43/2 26/35/2
f 2/2/10 1/1/10 3/4/10
f 3/4/1 6/8/1 4/6/1
f 4/6/1 5/7/1 2/2/1
f 35/47/2 9/13/2 12/17/2
f 34/45/3 10/15/3 11/16/3
f 9/13/4 7/9/4 10/15/4
f 10/15/4 7/9/4 8/12/4
f 8/11/5 7/10/5 33/44/5
f 12/17/3 10/15/3 34/45/3
f 7/10/5 9/14/5 35/46/5
f 11/16/6 8/12/6 36/48/6
f 13/18/7 18/24/7 21/30/7
f 24/33/8 17/23/8 16/21/8
f 23/32/9 15/20/9 14/19/9
f 21/29/8 18/25/8 17/23/8
f 14/19/9 13/18/9 22/31/9
f 20/27/2 16/22/2 15/20/2
f 3/4/2 20/27/2 23/32/2
f 4/6/9 19/26/9 22/31/9
f 2/2/8 21/29/8 24/33/8
f 23/32/9 19/26/9 4/6/9
f 24/33/8 20/28/8 3/5/8
f 22/31/7 21/30/7 2/3/7
f 25/34/7 30/40/7 18/24/7
f 17/23/8 27/36/8 29/38/8
f 26/35/9 28/37/9 14/19/9
f 18/25/8 30/41/8 27/36/8
f 14/19/9 28/37/9 25/34/9
f 16/22/2 29/39/2 26/35/2
f 31/42/6 36/48/6 30/40/6
f 27/36/5 33/44/5 35/46/5
f 32/43/3 34/45/3 28/37/3
f 30/41/5 36/49/5 33/44/5
f 28/37/3 34/45/3 31/42/3
f 29/39/2 35/47/2 32/43/2
